<svg width="515" height="732" viewBox="0 0 515 732" fill="none" xmlns="http://www.w3.org/2000/svg">
<path d="M449.21 2.50005L462.77 12.3001C464.44 8.44005 460.89 5.84004 460.97 2.35004C461.435 2.13638 461.938 2.01741 462.45 2.00005C467.57 2.81005 472.74 3.41004 477.78 4.59004C485.97 6.49004 492.72 11.02 498.45 17.1C499.399 18.0472 500.214 19.1206 500.87 20.29C505.19 28.81 508.96 37.51 508.53 47.37C508.36 51.22 508.01 55.0601 507.8 58.91C507.71 60.4901 507.8 62.07 507.8 63.81C510.87 62.81 510.87 62.8101 514.73 50.9901V63.9901C514.73 71.4301 514.65 78.86 514.73 86.29C514.766 88.9648 514.1 91.6023 512.8 93.94C505.63 107.62 498.55 121.35 491.39 135.04C490.05 137.61 488.48 140.04 487.07 142.48C487.52 142.9 487.61 143.03 487.73 143.07C487.85 143.11 488.09 143.16 488.16 143.07C496.82 134.14 505.46 125.2 514.44 115.92V193.44C513.05 189.77 512.12 187.04 510.99 184.38C507.74 176.74 504.41 169.13 501.1 161.51C500.737 160.46 500.045 159.554 499.126 158.929C498.207 158.304 497.11 157.992 496 158.04C484.863 157.767 473.726 158.618 462.76 160.58C442.838 163.917 423.427 169.795 405 178.07C389.006 185.254 373.838 194.149 359.76 204.6C350.923 211.119 342.568 218.268 334.76 225.99C315.924 244.824 300.309 266.624 288.54 290.52C280.465 306.724 274.391 323.85 270.45 341.52C267.45 355.6 265.05 369.75 265.02 384.22C265.02 387.91 264.13 391.63 264.36 395.29C265.12 407.7 265.42 420.11 267.5 432.47C269.94 447.423 273.702 462.131 278.74 476.42C282.68 487.42 287.21 498.34 293.29 508.42C297.89 516.04 303.01 523.34 307.9 530.78C313.68 539.6 319.3 548.55 325.28 557.23C338.7 576.7 352.81 595.65 369.59 612.43C373.89 616.73 378.14 621.09 382.59 625.18C385.72 628.01 386.44 627.86 388.84 624.32C398.033 610.8 407.153 597.237 416.2 583.63C417.781 581.115 419.198 578.499 420.44 575.8C422.62 571.34 422.44 570.75 419.24 567.13C413.68 560.943 408.123 554.75 402.57 548.55C387.729 531.907 374.059 514.254 361.66 495.72C351.66 481.03 343.47 465.4 338.08 448.43C334.807 437.651 332.465 426.61 331.08 415.43C329.498 404.244 329.206 392.913 330.21 381.66C331.79 365.11 334.97 348.82 341.33 333.26C348.315 315.703 358.028 299.359 370.11 284.83C383.622 268.562 400.083 254.991 418.63 244.83C432.946 236.932 448.289 231.059 464.22 227.38C471 225.87 477.96 225.15 484.84 224.07C493.69 222.66 502.58 222.77 511.49 223.23C512.313 223.309 513.131 223.436 513.94 223.61C515.05 227.68 514.94 267.83 513.84 271.39C512.76 271.12 511.64 270.88 510.54 270.56C504.16 268.68 497.84 266.56 491.38 264.94C480.648 262.464 469.572 261.842 458.63 263.1C436.03 265.43 415.31 273.22 397.63 287.83C382.99 299.93 371.63 314.51 364.54 332.39C360.74 341.98 357.62 351.73 356.45 361.9C355.58 369.53 355.86 377.34 356.1 385.06C356.51 398.14 360.2 410.5 365.44 422.41C371.056 435.238 379 446.915 388.87 456.85C390.288 458.348 391.362 460.136 392.02 462.09C394.2 468.39 396.08 474.79 398.18 481.09C398.47 481.94 399.55 483.28 400 483.19C400.531 483.052 401.03 482.81 401.467 482.479C401.905 482.148 402.273 481.734 402.55 481.26C403.171 479.754 403.64 478.189 403.95 476.59C404.44 474.76 404.9 472.92 405.51 470.59C406.99 471.38 408.14 471.92 409.22 472.59C418.86 478.52 428.8 483.89 439.6 487.37C445.24 489.18 451.04 490.49 456.83 491.77C459.64 492.39 460.5 491.9 461.5 489.56C470.03 469.47 478.93 449.56 484.63 428.35C484.9 426.883 485.067 425.4 485.13 423.91C482.58 424.06 480.55 424.02 478.57 424.31C463.57 426.54 450.36 422.68 438.65 413.31C429.846 406.294 423.954 396.265 422.11 385.16C421.43 381.49 420.59 377.86 420.99 374.16C422.81 357.23 430.1 343.58 445.17 334.83C457.1 327.9 469.85 326.83 483.01 330.37C488.621 331.908 493.862 334.564 498.42 338.18C499.67 339.18 500.99 340.06 502.35 341.04C505.66 338.59 506.5 334.93 508.48 332.04C510.46 329.15 512.13 326.29 514.48 322.49C514.57 324.49 514.66 325.61 514.66 326.69C514.66 388.377 514.66 450.067 514.66 511.76C514.692 514.583 514.104 517.378 512.94 519.95C507.08 532.79 501.253 545.643 495.46 558.51C494.75 559.982 494.146 561.503 493.65 563.06C492.45 567.22 495.06 570.06 499.14 568.79C503.22 567.52 507.37 565.42 511.46 563.69C512.26 563.35 513.02 562.94 514.25 562.36C514.76 567.69 515.35 572.45 512.06 577.02C508.17 582.45 504.7 588.19 501.18 593.87C500.02 595.752 499.09 597.767 498.41 599.87C497.49 602.69 499.03 604.65 501.97 604.28C503.55 603.98 505.022 603.27 506.24 602.22C508.3 600.56 510.11 598.59 512.61 596.22C512.36 601.22 512.31 605.37 511.89 609.53C511.19 616.46 510.46 623.41 509.37 630.29C507.47 642.29 505.69 654.36 503.12 666.29C498.2 689.06 484.75 705.88 465.22 718.03C451.121 726.789 434.818 731.351 418.22 731.18C372.44 731.22 326.667 731.22 280.9 731.18H277.74C278.681 730.396 279.663 729.662 280.68 728.98C292.68 722.17 302.86 713.08 313.03 703.92C315.03 702.16 316.03 700.45 314.96 697.73C314.415 696.008 314.093 694.224 314 692.42C313.74 690.26 314 688.12 316.25 687.09C317.208 686.657 318.273 686.521 319.308 686.7C320.344 686.878 321.302 687.362 322.06 688.09C323.06 688.93 324.06 689.85 325.18 690.89C325.981 690.499 326.727 690.005 327.4 689.42C332.24 683.793 337.047 678.127 341.82 672.42C342.3 671.86 342.71 671.23 343.14 670.62C347.32 664.62 346.5 665.19 343.14 660.69C326.367 638.52 310.901 615.39 296.82 591.42C287.82 576.04 278.56 560.77 271.03 544.58C267.4 536.78 264.21 528.77 260.82 520.85C260.2 519.42 259.6 518 258.65 515.75C254.31 525.75 250.65 534.94 246.37 543.84C242 552.93 237.14 561.84 232.25 570.64C227.36 579.44 222.32 587.84 216.86 597.26C218.145 596.822 219.387 596.267 220.57 595.6C223.68 593.31 226.68 590.87 229.76 588.53C230.589 587.864 231.626 587.51 232.69 587.53C232.47 588.294 232.132 589.019 231.69 589.68C230.41 591.12 229.01 592.47 227.6 593.78C221.6 599.34 215.6 604.86 209.6 610.44C208.39 611.534 207.315 612.769 206.4 614.12C195.67 630.91 184.08 647.12 172.16 663.05C170.11 665.8 169.91 666.3 172.16 669.35C176.88 675.64 181.45 682.13 186.84 687.82C193.57 694.93 200.96 701.42 208.24 707.99C218.152 716.971 229.228 724.576 241.17 730.6C240.352 730.787 239.524 730.924 238.69 731.01C194.26 730.95 149.82 730.94 105.39 730.75C97.6612 730.83 89.9625 729.776 82.54 727.62C76.75 725.86 70.68 724.98 64.73 723.72C45.54 719.72 30.92 708.6 19 693.42C18.3469 692.611 17.7742 691.74 17.29 690.82C12.58 681.56 7.51001 672.47 4.04001 662.61C2.21595 657.575 1.20333 652.283 1.04001 646.93C0.840008 638.32 0.85999 629.69 0.98999 621.08C1.14999 610.17 2.70999 599.56 6.98999 589.35C10.69 580.44 13.79 571.28 17.1 562.21C17.7542 560.395 18.269 558.533 18.64 556.64C18.87 555.889 18.8157 555.08 18.4875 554.366C18.1592 553.652 17.58 553.084 16.86 552.77C11.71 554.71 8.08 559.65 1.97 561.01C1.88 559.25 1.73999 557.82 1.73999 556.38C1.73999 501.83 1.51998 447.27 1.85998 392.72C1.99998 370.99 10.15 352.3 26.02 337.07C34.16 329.26 43.77 327.71 54.38 328.78C65.65 329.91 75.13 334.71 83.14 342.51C90.7951 349.689 95.5998 359.39 96.67 369.83C97.5 377.73 97.15 385.47 94.25 393C88.98 406.71 79.34 416 65.77 421.27C57.0496 424.795 47.4967 425.725 38.26 423.95C37.2592 423.669 36.2287 423.508 35.19 423.47C34.8509 423.438 34.5091 423.487 34.1925 423.613C33.8759 423.738 33.5934 423.937 33.3682 424.192C33.143 424.448 32.9813 424.753 32.8965 425.083C32.8116 425.412 32.806 425.758 32.88 426.09C33.1446 427.55 33.4986 428.993 33.94 430.41C37.79 444.17 43.32 457.32 48.58 470.57C50.99 476.65 53.66 482.57 56.27 488.57C57.72 491.89 58.52 492.37 62.12 491.68C70.8851 490.044 79.441 487.438 87.63 483.91C97.9684 479.402 107.833 473.878 117.08 467.42C127.141 460.233 135.81 451.274 142.66 440.98C151.767 427.708 158.013 412.687 161 396.87C161.653 392.772 162.1 388.643 162.34 384.5C162.776 381.419 162.99 378.311 162.98 375.2C162.38 363.02 160.73 351.07 156.62 339.44C152.348 327.067 145.989 315.517 137.82 305.29C127.635 292.65 114.916 282.284 100.48 274.86C90.414 269.768 79.6772 266.129 68.59 264.05C63.9286 263.17 59.1937 262.738 54.45 262.76C47.79 262.76 41.1 262.92 34.45 263.5C24.18 264.4 14.45 267.58 4.89999 271.35C4.21999 271.62 3.53 271.86 2.53 272.22C2.1537 271.449 1.89098 270.627 1.75 269.78C1.71 256.987 1.71 244.203 1.75 231.43C1.88354 230.807 2.0917 230.203 2.36999 229.63C4.64999 231.68 6.68 233.54 8.75 235.34C10.82 237.14 12.33 239.45 15.17 240.16C14.49 236.85 14.17 233.62 11.69 231.25C9.5 229.15 9.31999 226.62 10.3 223.49C14.8066 222.903 19.3643 222.816 23.89 223.23C37.04 224.38 50.18 225.77 62.89 229.52C72.9018 232.371 82.6428 236.099 92 240.66C105.374 247.153 117.86 255.337 129.15 265.01C145.87 279.63 159.62 296.61 169.65 316.53C174.547 326.044 178.563 335.985 181.65 346.23C184.211 354.896 186.126 363.741 187.38 372.69C188.04 377.53 188.14 382.45 188.51 387.33C188.63 388.95 188.81 390.57 188.98 392.19C189.132 392.914 189.223 393.65 189.25 394.39C188.86 399.39 188.44 404.39 187.96 409.39C187.63 412.93 187.25 416.46 186.78 419.98C183.9 441.59 176.64 461.72 166.03 480.68C163.57 485.08 160.77 489.31 157.95 493.5C143.119 515.594 126.67 536.558 108.74 556.22C105.33 559.95 102.03 563.79 98.53 567.42C96.26 569.77 95.66 572.15 97.32 575.02C100.32 580.17 102.97 585.5 106.23 590.44C113.61 601.6 121.23 612.58 128.82 623.6C129.71 624.9 130.82 626.03 132.07 627.47C135.838 625.159 139.296 622.376 142.36 619.19C162.92 598.4 180.82 575.48 197.05 551.19C199.61 547.36 202.05 543.47 204.58 539.6C210.07 531.12 215.32 522.48 221.1 514.2C232.04 498.51 238.66 480.92 243.98 462.81C246.82 453.16 249.12 443.31 250.98 433.43C252.34 426.17 252.77 418.72 253.29 411.34C253.77 404.54 254.01 397.7 253.99 390.88C253.873 381.092 253.095 371.323 251.66 361.64C249.408 344.566 245.193 327.808 239.1 311.7C232.85 295.44 225.46 279.7 215.56 265.36C209.801 256.737 203.606 248.413 197 240.42C190.58 232.86 183.33 225.98 176.14 219.13C166.239 209.911 155.476 201.664 144 194.5C123.961 181.675 102.068 172.009 79.09 165.84C68.9287 163.142 58.622 161.026 48.22 159.5C39.74 158.21 31.09 158.16 22.54 157.31C17.42 156.8 14.42 159.04 12.59 163.58C8.8496 172.631 5.93769 182.003 3.89001 191.58C3.18001 195.05 2.62999 198.58 1.73999 202C1.73999 196.24 1.73999 190.47 1.73999 184.71C1.73999 141.597 1.73999 98.4867 1.73999 55.3801C1.73999 42.0301 5.91999 29.9901 13.4 19.0501C19.72 9.80005 28.92 4.99004 39.62 2.87004C47.6519 1.35909 55.8193 0.68881 63.99 0.870043C77.51 1.01004 91.0333 1.01004 104.56 0.870043C110.06 0.837934 115.538 1.54425 120.85 2.97005C126.4 4.43005 131.15 7.65005 135.29 11.53C141.07 16.748 145.05 23.6615 146.66 31.28C149.89 46.81 155.19 61.51 164.01 74.86C175.02 91.5406 190.18 105.07 208 114.12C220.17 120.43 233.16 123.81 246.57 125.72C251.09 126.36 255.77 125.82 260.37 125.95C279.42 126.49 297.08 121.43 313.65 112.38C327.262 104.986 339.206 94.8695 348.74 82.66C360.65 67.47 367.89 50.32 371.56 31.53C372.1 28.9186 372.358 26.2566 372.33 23.59C372.222 22.9559 371.99 22.3494 371.646 21.8054C371.303 21.2613 370.856 20.7905 370.33 20.42C368.267 18.962 366.086 17.6776 363.81 16.58C352.39 10.8601 340.87 5.36004 328.6 1.65004C328.37 1.58004 328.2 1.28004 327.81 0.900041H332C365.88 0.900041 399.76 0.99005 433.65 0.80005C435.86 0.71031 438.062 1.10409 440.104 1.95389C442.145 2.80369 443.977 4.08901 445.47 5.72005C446.47 6.72005 447.29 8.10005 449.36 7.97005V2.42005L449.21 2.50005ZM258.91 212.84C270.052 212.849 281.182 212.091 292.22 210.57C305.723 208.622 319.046 205.585 332.06 201.49C345.065 197.304 357.682 191.997 369.77 185.63C389.58 175.339 407.773 162.2 423.77 146.63C433.22 137.36 442.32 127.78 450.08 117.04C454.24 111.26 458.08 105.27 462.08 99.34C463.63 97 463.79 94.75 461.68 92.47C459.27 89.86 457.23 86.9 454.79 84.31C447.96 77.08 441.19 69.7801 434.03 62.8801C429.12 58.16 423.62 54.05 418.35 49.71C416.03 47.79 414.93 47.9701 413.35 50.3801C413.03 50.8801 412.8 51.44 412.51 51.96C410.04 56.36 407.72 60.8501 405.07 65.1301C395.109 81.1888 382.568 95.4942 367.95 107.47C357.843 115.809 346.783 122.918 335 128.65C314.684 138.556 292.656 144.473 270.11 146.08C248.902 147.529 227.613 144.891 207.4 138.31C194.671 134.24 182.457 128.709 171 121.83C150.352 109.609 132.584 93.0758 118.91 73.36C114.24 66.69 110.28 59.51 106.22 52.43C103.38 47.43 103.38 47.22 98.86 50.95C93.14 55.67 87.5467 60.5367 82.08 65.55C77.61 69.6701 73.37 74.03 69.18 78.43C65.5 82.3 61.91 86.27 58.5 90.37C54.02 95.77 54.07 95.92 57.9 101.92C67.3184 116.724 78.3052 130.471 90.67 142.92C96.73 149 103.31 154.61 109.95 160.07C138.447 183.158 171.905 199.331 207.7 207.32C215.509 209.097 223.411 210.432 231.37 211.32C240.51 212.23 249.73 212.35 258.91 212.84ZM27.77 576.98L28.15 577.08C28.0981 577.815 28.1794 578.554 28.39 579.26C28.84 580.11 29.51 581.26 30.28 581.4C31.05 581.54 32.03 580.74 32.89 580.28C33.12 580.16 33.25 579.82 33.39 579.56C36.57 573.71 39.78 567.86 42.9 561.98C43.42 560.905 43.7099 559.734 43.7513 558.54C43.7926 557.347 43.5844 556.158 43.14 555.05C41.73 550.82 37.31 549.86 34.51 553.34C33.1297 555.079 32.1313 557.089 31.58 559.24C30.12 565.11 29 571.06 27.77 576.98ZM392.77 49.08C392.6 47.08 392.06 45.54 390.44 44.7C389.665 44.2361 388.757 44.0479 387.862 44.1659C386.967 44.2839 386.138 44.7012 385.51 45.35C384.414 46.5339 383.513 47.884 382.84 49.35C380.55 53.98 378.38 58.67 376.17 63.35C375.91 63.89 375.64 64.41 375.41 64.96C375.043 65.612 374.933 66.3775 375.101 67.1064C375.27 67.8353 375.704 68.475 376.32 68.9C377.79 69.95 379.14 69.39 380.32 68.4C381.025 67.86 381.651 67.2238 382.18 66.51C385.27 62.01 388.37 57.51 391.32 52.92C391.966 51.704 392.462 50.4148 392.8 49.08H392.77ZM486 631.8C486 627.12 484.17 625.73 480.94 627.28C479 628.22 476.71 629.39 475.69 631.11C472.62 636.3 470 641.78 467.39 647.23C466.61 648.87 467.88 650.23 469.66 649.74C471.357 649.252 472.952 648.463 474.37 647.41C478.353 644.32 481.709 640.498 484.26 636.15C484.982 634.761 485.565 633.304 486 631.8ZM475.23 585.42H475.47C475.363 586.001 475.299 586.589 475.28 587.18C475.33 589.25 476.61 590.18 478.48 589.41C479.317 589.115 480.057 588.596 480.62 587.91C482.81 584.77 485.04 581.64 486.91 578.32C487.441 577.495 487.633 576.497 487.447 575.534C487.261 574.571 486.71 573.717 485.91 573.15C485.149 572.554 484.226 572.2 483.262 572.134C482.297 572.068 481.335 572.293 480.5 572.78C479.54 573.346 478.707 574.104 478.055 575.008C477.402 575.911 476.944 576.94 476.71 578.03C476.09 580.42 475.71 582.92 475.23 585.42ZM30.57 62.08C29.7 62.47 28.87 62.59 28.48 63.08C25.77 66.4 22.82 69.59 20.66 73.25C19.48 75.25 19.42 78.08 19.37 80.55C19.32 83.0201 21.27 83.79 22.93 82.14C24.88 80.2 26.93 78.01 27.93 75.53C29.43 71.88 30.07 67.87 31.01 64C31.12 63.52 30.78 62.93 30.57 62.08ZM473.07 654.26C473.53 655.15 473.78 656.4 474.46 656.73C474.915 656.873 475.399 656.9 475.868 656.807C476.336 656.714 476.773 656.506 477.14 656.2C478.177 654.988 478.938 653.565 479.37 652.03C479.432 651.534 479.334 651.032 479.089 650.596C478.844 650.161 478.465 649.816 478.009 649.612C477.553 649.408 477.044 649.356 476.556 649.464C476.068 649.571 475.628 649.833 475.3 650.21C474.401 651.468 473.653 652.828 473.07 654.26Z" fill="#E7881A"/>
<path d="M259.42 0.890045H299.5C300.69 0.890045 301.88 0.890048 303.06 0.940048C303.436 0.919863 303.812 0.974374 304.167 1.10045C304.522 1.22652 304.848 1.42166 305.127 1.67458C305.406 1.92749 305.632 2.23317 305.792 2.57396C305.952 2.91475 306.043 3.28389 306.06 3.66005C307.85 15.58 306.79 27 300.06 37.42C291.87 50.14 280.44 58.01 265.37 59.79C248.62 61.79 234.37 56.37 223.07 43.79C217.642 38.0053 214.057 30.7374 212.77 22.91C211.85 16.82 212.28 10.51 212.28 4.29004C212.28 2.22004 213.72 1.11005 215.78 0.990051C217.11 0.910051 218.45 0.920044 219.78 0.920044L259.42 0.890045Z" fill="#E7881A"/>
</svg>
