<svg width="187" height="115" viewBox="0 0 187 115" fill="none" xmlns="http://www.w3.org/2000/svg">
<g clip-path="url(#clip0_291_59)">
<path fill-rule="evenodd" clip-rule="evenodd" d="M71.9148 0.854437L71.9388 0.871354V1.70816C71.6626 1.72506 71.5253 1.57842 71.3945 1.43876C71.3683 1.41077 71.3424 1.38305 71.3156 1.357C71.0764 1.10243 70.783 0.901827 70.456 0.769196C70.1289 0.636564 69.776 0.575105 69.4221 0.589111C65.3135 0.611552 61.2059 0.608966 57.0985 0.60638C55.7782 0.605549 54.4579 0.604717 53.1376 0.604717H52.4664C52.489 0.626162 52.507 0.645974 52.5225 0.663047C52.5498 0.693181 52.5694 0.7148 52.5929 0.721773C54.5586 1.30081 56.4041 2.15922 58.2336 3.05196C58.5982 3.22326 58.9476 3.42372 59.2781 3.65128C59.3624 3.70911 59.4341 3.78259 59.489 3.8675C59.544 3.95241 59.5812 4.04707 59.5985 4.14604C59.6031 4.56223 59.5617 4.97768 59.4752 5.38527C58.8872 8.3179 57.7274 10.9946 55.8194 13.3653C54.2921 15.2709 52.3786 16.8498 50.1979 18.0039C47.5434 19.4163 44.7143 20.2061 41.6624 20.1218C41.3955 20.1144 41.1269 20.1208 40.8584 20.1272C40.3857 20.1384 39.9135 20.1496 39.4517 20.0859C37.3034 19.7878 35.2224 19.2603 33.2727 18.2754C30.4179 16.863 27.9893 14.7513 26.2255 12.148C24.8125 10.0644 23.9634 7.77008 23.446 5.34625C23.1881 4.15719 22.5504 3.07817 21.6245 2.26379C20.9613 1.65822 20.2003 1.15566 19.3112 0.927792C18.4603 0.705261 17.5825 0.595024 16.7015 0.600035C14.5345 0.621886 12.3681 0.621886 10.2022 0.600035C8.89319 0.57175 7.58477 0.676363 6.29805 0.912183C4.5839 1.24306 3.11005 1.99378 2.09758 3.43746C0.899279 5.14491 0.229638 7.02404 0.229638 9.10763V31.9912C0.326312 31.6293 0.397946 31.2595 0.469508 30.8901C0.503489 30.7146 0.537453 30.5393 0.574074 30.3649C0.902115 28.8702 1.3686 27.4075 1.96782 25.9948C2.26099 25.2863 2.74159 24.9367 3.56182 25.0163C4.09867 25.0683 4.63798 25.1011 5.17714 25.1339C6.01355 25.1848 6.84979 25.2356 7.67578 25.3581C9.3422 25.5962 10.9933 25.9266 12.6212 26.3476C16.3023 27.3103 19.8096 28.819 23.0198 30.8207C24.8583 31.9387 26.5825 33.226 28.1687 34.6648L28.2313 34.7229C29.3626 35.7728 30.5006 36.829 31.5105 37.9876C32.5688 39.235 33.5612 40.5342 34.4838 41.8801C36.0698 44.1182 37.2537 46.5748 38.255 49.1125C39.2311 51.6266 39.9063 54.242 40.2671 56.9069C40.4969 58.4181 40.6216 59.9428 40.6404 61.4705C40.6436 62.5349 40.6051 63.6024 40.5282 64.6637L40.5056 64.9797C40.4311 66.0278 40.3561 67.0819 40.1581 68.1114C39.8602 69.6534 39.4917 71.1908 39.0367 72.6969C38.1845 75.5234 37.1239 78.2687 35.3713 80.7175C34.7329 81.6086 34.1348 82.5263 33.5366 83.4442C33.2675 83.8572 32.9977 84.2712 32.7248 84.6818C32.5656 84.9191 32.4086 85.1569 32.2518 85.3943L32.2507 85.3959C32.0087 85.7624 31.7671 86.1283 31.5185 86.4907C28.9184 90.2817 26.0508 93.859 22.7571 97.1037C22.2662 97.601 21.7123 98.0353 21.1086 98.396C21.0547 98.3355 21.0024 98.2785 20.952 98.2235C20.8152 98.0744 20.6922 97.9403 20.588 97.792L20.09 97.0881C19.0396 95.6038 17.99 94.1207 16.969 92.6166C16.6309 92.1174 16.3337 91.5927 16.0358 91.0667C15.8736 90.7802 15.7111 90.4933 15.5417 90.2099C15.2757 89.762 15.3718 89.3906 15.7355 89.0238C16.1002 88.6553 16.4513 88.2729 16.8026 87.8904C16.9914 87.6849 17.1802 87.4792 17.3711 87.2758C20.2436 84.207 22.8786 80.935 25.2546 77.4868C25.7064 76.8328 26.155 76.1727 26.5491 75.4859C28.2488 72.5268 29.4119 69.385 29.8732 66.0122C29.9485 65.4629 30.0094 64.9119 30.0623 64.3594C30.1392 63.579 30.2065 62.7987 30.2689 62.0183C30.2646 61.9028 30.2501 61.788 30.2257 61.6749L30.2139 61.5666C30.1904 61.3499 30.1669 61.1331 30.1504 60.9164C30.1311 60.6686 30.1164 60.4201 30.1017 60.1716C30.0712 59.6564 30.0407 59.1411 29.9694 58.6315C29.7685 57.2347 29.4617 55.8544 29.0514 54.5018C28.5569 52.9028 27.9134 51.3512 27.129 49.8664C25.5222 46.7574 23.3194 44.1072 20.6409 41.8254C18.8322 40.3157 16.832 39.0384 14.6894 38.025C13.1903 37.3131 11.6298 36.7313 10.0259 36.2864C7.98978 35.7011 5.88474 35.4841 3.7781 35.3047C3.05306 35.24 2.32292 35.2537 1.60096 35.3452C1.44396 35.8338 1.4728 36.2286 1.82364 36.5564C2.16965 36.8785 2.2532 37.3025 2.34097 37.7478C2.35398 37.8138 2.36708 37.8803 2.38114 37.947C2.04793 37.8658 1.829 37.6507 1.60541 37.4311C1.52371 37.3508 1.44139 37.2699 1.35265 37.1947C1.11122 36.9902 0.873195 36.7807 0.620635 36.5584C0.526472 36.4755 0.429701 36.3904 0.330566 36.3035C0.285983 36.3929 0.252635 36.4873 0.231242 36.5845C0.224834 38.5781 0.224834 40.5732 0.231242 42.5699C0.253827 42.7021 0.295915 42.8303 0.356199 42.9507L0.451601 42.9174C0.562862 42.8786 0.650078 42.8481 0.735874 42.8149C2.26579 42.2265 3.82455 41.7302 5.46982 41.5898C6.53515 41.4992 7.6069 41.4743 8.67384 41.4743C9.43378 41.4709 10.1923 41.5383 10.9391 41.6756C12.7153 42.0001 14.4353 42.5681 16.0479 43.3628C18.3605 44.5214 20.3982 46.1393 22.0298 48.1121C23.3385 49.7083 24.3571 51.511 25.0416 53.442C25.7 55.2572 25.9643 57.1223 26.0605 59.0232C26.0621 59.5088 26.0278 59.9939 25.9579 60.4747C25.9195 61.1214 25.8478 61.7657 25.7433 62.4054C25.2648 64.8739 24.2642 67.2184 22.8052 69.2898C21.7077 70.8963 20.3191 72.2947 18.7072 73.4164C17.2259 74.4243 15.6455 75.2864 13.9893 75.99C12.6774 76.5406 11.3068 76.9473 9.90258 77.2027C9.32585 77.3104 9.19769 77.2355 8.9654 76.7174C8.87202 76.5082 8.77816 76.2997 8.68439 76.0914C8.35839 75.3672 8.03323 74.6448 7.73345 73.908C7.61653 73.6211 7.49878 73.3344 7.38103 73.0478C6.65014 71.2687 5.91931 69.4897 5.38811 67.6401C5.31741 67.4189 5.2607 67.1938 5.2183 66.9658C5.20644 66.914 5.20734 66.8601 5.22094 66.8086C5.23453 66.7571 5.26043 66.7095 5.29651 66.6696C5.33259 66.6298 5.37784 66.5988 5.42856 66.5792C5.47928 66.5596 5.53404 66.552 5.58837 66.5569C5.75477 66.5629 5.91986 66.588 6.08018 66.6319C7.55991 66.9089 9.0903 66.7637 10.4873 66.2136C12.6612 65.3911 14.2056 63.9411 15.0498 61.8014C15.5144 60.6261 15.5705 59.4181 15.4375 58.1851C15.2661 56.5558 14.4964 55.0416 13.27 53.9212C11.9868 52.7038 10.4681 51.9546 8.66262 51.7783C6.96289 51.6113 5.42336 51.8532 4.11932 53.0721C1.57693 55.4491 0.27129 58.3662 0.248862 61.7577C0.209756 67.8702 0.216894 73.9835 0.224031 80.0965C0.226835 82.498 0.229638 84.8994 0.229638 87.3007C0.229638 87.4498 0.239507 87.5982 0.250361 87.7614C0.25587 87.8442 0.261632 87.9309 0.266486 88.0234C0.821685 87.903 1.24906 87.6028 1.66556 87.3103C1.98335 87.0871 2.29481 86.8683 2.65188 86.7373C2.76722 86.7863 2.86002 86.875 2.9126 86.9864C2.96519 87.0977 2.97389 87.2241 2.93704 87.3413C2.87761 87.6368 2.79513 87.9274 2.69033 88.2106C2.55264 88.5782 2.41721 88.9468 2.28179 89.3153L2.28131 89.3166C1.89535 90.3669 1.50934 91.4174 1.07069 92.4465C0.385033 94.04 0.13512 95.6959 0.109488 97.3987C0.0886615 98.7425 0.0854604 100.089 0.117501 101.433C0.143664 102.269 0.305887 103.095 0.598104 103.88C1.05221 105.138 1.67735 106.314 2.30239 107.491L2.30301 107.492C2.44291 107.756 2.5828 108.019 2.72077 108.283C2.79833 108.427 2.89008 108.563 2.99471 108.689C4.90431 111.058 7.24645 112.794 10.3207 113.418C10.6081 113.477 10.8973 113.531 11.1864 113.585C11.8561 113.71 12.5261 113.835 13.1739 114.027C14.363 114.363 15.5963 114.528 16.8345 114.515C22.404 114.539 27.9746 114.545 33.5446 114.551L33.6525 114.551C35.1648 114.552 36.6771 114.554 38.1893 114.556C38.3229 114.542 38.4556 114.521 38.5866 114.492C36.6735 113.552 34.8991 112.365 33.3111 110.963C33.1612 110.831 33.011 110.7 32.8608 110.568C31.8423 109.676 30.8224 108.782 29.8828 107.815C29.1699 107.082 28.5465 106.263 27.9252 105.448C27.794 105.276 27.6629 105.104 27.5311 104.932C27.1706 104.456 27.2027 104.378 27.5311 103.949C29.4407 101.463 31.2974 98.9329 33.0164 96.3124C33.163 96.1017 33.3351 95.9088 33.529 95.7381C34.1057 95.2156 34.6824 94.6965 35.2591 94.1773L35.2601 94.1764C35.6443 93.8306 36.0285 93.4847 36.4126 93.1379C36.6385 92.9334 36.8628 92.7227 37.0679 92.498C37.1388 92.3949 37.1928 92.2817 37.2281 92.1624C37.0577 92.1593 36.8915 92.2145 36.7587 92.3185C36.5578 92.4672 36.3591 92.6184 36.1605 92.7696L36.1591 92.7706C35.8702 92.9905 35.5814 93.2104 35.2864 93.422C35.0969 93.526 34.898 93.6127 34.6921 93.681C34.9677 93.2178 35.2366 92.7703 35.5002 92.3317L35.5016 92.3295C36.0741 91.377 36.6215 90.4663 37.1576 89.5263C37.941 88.1529 38.7195 86.7623 39.4196 85.3436C39.8913 84.388 40.316 83.411 40.7615 82.3861C40.9634 81.9215 41.1701 81.4462 41.3869 80.9594C41.5391 81.3106 41.6352 81.5322 41.7345 81.7554C41.9031 82.1391 42.0686 82.5241 42.234 82.9091C42.6016 83.7644 42.9692 84.6196 43.3702 85.4591C44.4256 87.6698 45.6931 89.7706 46.9593 91.8692C47.1403 92.1692 47.3214 92.4693 47.5018 92.7696C49.7576 96.5107 52.2353 100.121 54.9223 103.581C54.9894 103.668 55.0502 103.744 55.1039 103.81C55.4809 104.277 55.5084 104.311 54.9223 105.131C54.916 105.139 54.9097 105.148 54.9034 105.157C54.8945 105.169 54.8856 105.182 54.8767 105.194C54.8236 105.269 54.7706 105.344 54.7108 105.412C53.9461 106.302 53.1761 107.187 52.4007 108.065C52.293 108.156 52.1734 108.233 52.0451 108.294C51.8656 108.132 51.7054 107.988 51.5452 107.857C51.4238 107.744 51.2703 107.668 51.1044 107.64C50.9385 107.612 50.7679 107.634 50.6145 107.701C50.254 107.862 50.2124 108.196 50.254 108.533C50.2688 108.815 50.3205 109.093 50.4078 109.362C50.5792 109.786 50.419 110.053 50.0986 110.328C48.4694 111.758 46.8385 113.176 44.9161 114.239C44.7531 114.346 44.5959 114.46 44.4451 114.582H44.9514C52.2832 114.589 59.6162 114.589 66.9502 114.582C69.6091 114.609 72.2209 113.897 74.4796 112.53C77.6083 110.634 79.763 108.009 80.5512 104.455C80.9057 102.852 81.1664 101.232 81.4263 99.6177C81.4682 99.3571 81.5102 99.0964 81.5525 98.8362C81.7271 97.7624 81.8441 96.6777 81.9562 95.5961C82.0026 95.1483 82.0208 94.7012 82.0408 94.2108L82.0408 94.2096C82.0498 93.9894 82.0591 93.7604 82.0715 93.5187C81.9375 93.6425 81.8158 93.7594 81.7008 93.8697C81.4724 94.089 81.2706 94.2828 81.0511 94.4552C80.856 94.619 80.62 94.7299 80.367 94.7767C79.896 94.8344 79.6493 94.5285 79.7967 94.0884C79.9057 93.7601 80.0547 93.4457 80.2404 93.152C80.2716 93.1029 80.3028 93.0538 80.334 93.0047C80.373 92.9432 80.412 92.8817 80.451 92.8202C80.9439 92.0429 81.4379 91.264 81.9834 90.5221C82.4927 89.8329 82.4217 89.1161 82.3426 88.3181L82.3343 88.2341C82.296 88.2516 82.2606 88.2682 82.2274 88.2839C82.1913 88.301 82.1579 88.317 82.1263 88.3321C82.0375 88.3747 81.9635 88.4101 81.8873 88.4416C81.6905 88.5227 81.4929 88.609 81.2949 88.6955C80.8338 88.8968 80.3708 89.099 79.9136 89.2376C79.26 89.4358 78.8419 88.9926 79.0341 88.3433C79.1135 88.1003 79.2104 87.8629 79.3241 87.6332C80.2522 85.625 81.1856 83.6189 82.1244 81.615C82.311 81.2136 82.405 80.7773 82.3999 80.3367V51.4521C82.3999 51.342 82.3938 51.2293 82.3855 51.0774C82.3811 50.9967 82.3761 50.9049 82.3711 50.7966C82.2711 50.9542 82.1787 51.1014 82.0911 51.2411C81.849 51.6272 81.6428 51.9559 81.4099 52.2871C81.3047 52.4367 81.2196 52.5995 81.1335 52.7643C80.9599 53.0962 80.7822 53.4362 80.4279 53.6917C80.363 53.6462 80.2986 53.602 80.235 53.5583C80.085 53.4553 79.9389 53.3549 79.7983 53.2454C79.0682 52.681 78.2284 52.2664 77.3296 52.0264C75.2213 51.4739 73.1788 51.6409 71.2676 52.7225C68.8533 54.0882 67.6855 56.2186 67.3939 58.8609C67.3374 59.3703 67.4354 59.8711 67.5341 60.3753C67.5473 60.4427 67.5605 60.5102 67.5733 60.5777C67.8687 62.311 68.8127 63.8762 70.2231 64.9712C72.099 66.4336 74.2153 67.0361 76.6183 66.688C76.8275 66.6582 77.0402 66.6507 77.278 66.6424C77.4007 66.6381 77.5301 66.6336 77.6692 66.6256C77.6591 66.8581 77.6323 67.0897 77.5891 67.3186C76.7731 70.2768 75.5477 73.073 74.321 75.8721C74.175 76.2052 74.029 76.5384 73.8837 76.8719C73.7235 77.2371 73.5857 77.3136 73.1355 77.2168C72.208 77.017 71.2788 76.8126 70.3753 76.5301C68.6451 75.9869 67.0527 75.1488 65.5084 74.2233C65.3914 74.1526 65.2693 74.0912 65.1292 74.0207C65.0621 73.987 64.9907 73.951 64.914 73.9111C64.8727 74.0648 64.8357 74.2047 64.8009 74.3367C64.7533 74.5168 64.7094 74.6829 64.6641 74.8476C64.6144 75.0972 64.5392 75.3414 64.4398 75.5765C64.3954 75.6504 64.3365 75.715 64.2664 75.7667C64.1963 75.8184 64.1164 75.8561 64.0313 75.8777C63.9592 75.8917 63.7862 75.6826 63.7397 75.5499C63.5946 75.1257 63.456 74.6986 63.3173 74.2711C63.1345 73.7077 62.9515 73.1436 62.7529 72.5845C62.6475 72.2795 62.4753 72.0004 62.2483 71.7667C60.6671 70.2162 59.3945 68.3937 58.4948 66.3915C57.6553 64.5326 57.0642 62.6036 56.9985 60.5621L56.9948 60.4484C56.9574 59.2806 56.9196 58.1008 57.0545 56.9474C57.242 55.3602 57.7418 53.8385 58.3506 52.3417C59.4864 49.5511 61.3063 47.2755 63.6516 45.387C66.484 43.1068 69.8033 41.891 73.4239 41.5273C75.1768 41.3309 76.9512 41.4281 78.6705 41.8145C79.3716 41.9858 80.0623 42.1929 80.7528 42.3999C81.0814 42.4984 81.4104 42.5971 81.7399 42.6916C81.8601 42.7257 81.9817 42.7539 82.1018 42.7818C82.1577 42.7948 82.2136 42.8078 82.2686 42.8212C82.4448 42.2656 82.4624 35.9992 82.2846 35.364C82.1551 35.3368 82.024 35.317 81.8921 35.3047C80.4647 35.2329 79.0405 35.2157 77.6228 35.4358C77.278 35.4885 76.932 35.5357 76.586 35.5829C75.8259 35.6867 75.0657 35.7904 74.3194 35.9524C71.7673 36.5266 69.3093 37.4432 67.0158 38.6759C64.0446 40.2617 61.4075 42.3798 59.2429 44.9188C57.3074 47.1863 55.7514 49.7373 54.6323 52.4775C53.6134 54.906 53.104 57.4484 52.8509 60.0315C52.69 61.7877 52.7368 63.5562 52.9902 65.3021C53.2121 67.047 53.5873 68.7701 54.1117 70.4525C54.9751 73.1011 56.2872 75.5406 57.8892 77.8333C59.8756 80.726 62.0655 83.4811 64.443 86.0787C65.3327 87.0463 66.2228 88.013 67.1136 88.9785C67.6262 89.5435 67.655 89.6356 67.3058 90.3317C67.1068 90.7529 66.8799 91.1611 66.6266 91.5538C65.1773 93.6774 63.7162 95.7943 62.2435 97.9044C61.859 98.4569 61.7436 98.4803 61.2422 98.0386C60.6647 97.5215 60.1082 96.9767 59.5515 96.4317C59.4212 96.3041 59.2902 96.1759 59.1596 96.0487C56.4714 93.4298 54.211 90.4722 52.0611 87.4334C51.4034 86.5033 50.7729 85.5534 50.1426 84.6038L50.1409 84.6013C49.8536 84.1685 49.5665 83.7359 49.2768 83.3052C49.0374 82.9505 48.7947 82.5977 48.5519 82.245L48.5507 82.2433C47.9992 81.4421 47.4476 80.6407 46.9362 79.8154C45.9622 78.2422 45.2365 76.5379 44.6053 74.8211C43.7982 72.5909 43.1956 70.2954 42.8047 67.9616C42.5398 66.4282 42.4551 64.8899 42.3703 63.3505C42.3485 62.9533 42.3266 62.556 42.3016 62.1588C42.2811 61.8408 42.3162 61.5199 42.3513 61.1986C42.3793 60.9426 42.4074 60.6863 42.4074 60.431C42.4122 58.1726 42.7967 55.9642 43.2773 53.7667C43.9086 51.0088 44.8817 48.3359 46.1753 45.8069C48.0607 42.0774 50.5622 38.6749 53.5798 35.7354C54.8306 34.5302 56.1691 33.4145 57.5848 32.397C59.8401 30.7659 62.2701 29.3776 64.8323 28.2564C67.7843 26.9648 70.894 26.0475 74.0855 25.5266C75.8424 25.2204 77.6264 25.0876 79.4106 25.1302C79.5885 25.1227 79.7641 25.1714 79.9113 25.2689C80.0585 25.3665 80.1695 25.5078 80.2276 25.6718L80.5578 26.4116C80.9786 27.3539 81.3993 28.2961 81.812 29.2412C81.9324 29.5172 82.0386 29.7981 82.1617 30.1238C82.2238 30.2879 82.2901 30.4633 82.3647 30.6552V18.5564L81.2044 19.7248C80.1746 20.7619 79.1655 21.7782 78.1546 22.7938C78.1434 22.8078 78.105 22.8 78.0857 22.7938C78.0732 22.7897 78.0627 22.7797 78.0369 22.755C78.0232 22.7418 78.0051 22.7245 77.98 22.7017C78.0581 22.57 78.1393 22.4385 78.2209 22.3063C78.3754 22.0561 78.5317 21.8028 78.6721 21.5405C79.2054 20.5471 79.7359 19.5523 80.2664 18.5577C80.8769 17.4129 81.4874 16.2683 82.102 15.1258C82.3103 14.761 82.4169 14.3493 82.4112 13.9319C82.4026 13.159 82.4055 12.3862 82.4083 11.6129C82.4097 11.226 82.4112 10.8386 82.4112 10.4514V8.42247C81.7928 10.2673 81.7928 10.2673 81.301 10.4233C81.301 10.3309 81.2993 10.2413 81.2977 10.1537C81.2945 9.98386 81.2915 9.82122 81.301 9.65857C81.3157 9.39551 81.3347 9.13274 81.3538 8.87002C81.3782 8.53263 81.4026 8.1953 81.4179 7.85748C81.4868 6.31859 80.8829 4.96074 80.1908 3.63099C80.0856 3.44848 79.9552 3.28094 79.8031 3.13312C78.8851 2.18419 77.8038 1.47717 76.4917 1.18063C75.8993 1.04549 75.2956 0.959095 74.6921 0.872724C74.4731 0.841388 74.2542 0.810055 74.0359 0.7764C73.9539 0.77911 73.8733 0.797677 73.7988 0.831024C73.7935 1.05465 73.8862 1.25486 73.9789 1.45488C74.112 1.74206 74.2448 2.02885 74.0871 2.38396L71.9388 0.871354V0.84195L71.9148 0.854437ZM41.4285 33.6831C43.2135 33.6845 44.9965 33.5661 46.7648 33.3288C48.928 33.0247 51.0624 32.5508 53.1472 31.9116C55.2307 31.2583 57.252 30.43 59.1884 29.4363C62.3619 27.8302 65.2766 25.7794 67.8393 23.3494C69.3532 21.9026 70.811 20.4074 72.0542 18.7312C72.5186 18.1024 72.9582 17.4578 73.3989 16.8115C73.5904 16.5307 73.7825 16.2489 73.9766 15.9686C74.2249 15.6034 74.2505 15.2523 73.9125 14.8964C73.7261 14.6997 73.5534 14.4902 73.3807 14.2807C73.1959 14.0564 73.0108 13.8318 72.8087 13.6229C72.6549 13.4642 72.5013 13.3054 72.3477 13.1465L72.3459 13.1448C71.4072 12.1742 70.4681 11.2032 69.4829 10.2782C68.914 9.7454 68.2957 9.2624 67.6776 8.77961C67.4411 8.59487 67.2046 8.41015 66.971 8.22269C66.5993 7.92303 66.4231 7.95112 66.17 8.32726C66.1392 8.37408 66.1137 8.42426 66.0881 8.47445C66.0711 8.50792 66.054 8.54139 66.0354 8.57386C65.9131 8.78616 65.7931 8.9998 65.673 9.21341C65.4049 9.69064 65.1367 10.168 64.8435 10.6294C63.2478 13.1357 61.2386 15.3684 58.8969 17.2375C57.2777 18.539 55.5058 19.6486 53.6182 20.5432C50.3635 22.0893 46.8346 23.0127 43.2228 23.2635C39.8252 23.4897 36.4147 23.078 33.1766 22.0509C31.1375 21.4156 29.1807 20.5524 27.3453 19.4788C24.0374 17.5713 21.191 14.991 19.0004 11.9138C18.3537 11.014 17.792 10.0547 17.2315 9.09742C17.1436 8.94722 17.0557 8.79707 16.9674 8.64721L16.9438 8.60662C16.5122 7.86588 16.4997 7.84434 15.7884 8.41622C14.872 9.15289 13.976 9.91245 13.1002 10.6949C12.3841 11.3379 11.7048 12.0184 11.0336 12.7051C10.4441 13.3091 9.86894 13.9288 9.32265 14.5687C8.60495 15.4115 8.61296 15.4349 9.22653 16.3713C10.7354 18.6819 12.4955 20.8273 14.4763 22.7704C15.4471 23.7193 16.5013 24.5949 17.565 25.447C22.1302 29.0505 27.4902 31.5746 33.2246 32.8215C34.4756 33.0988 35.7416 33.3072 37.0166 33.4458C38.0137 33.5425 39.0168 33.5821 40.0197 33.6216C40.4895 33.6401 40.9594 33.6587 41.4285 33.6831ZM4.39967 90.5159L4.46055 90.5315C4.45223 90.6462 4.46526 90.7615 4.499 90.8717C4.57109 91.0044 4.67842 91.1838 4.80178 91.2057C4.89463 91.2221 5.00654 91.1555 5.11496 91.0909C5.15059 91.0696 5.18583 91.0487 5.2199 91.0309C5.24966 91.0158 5.26897 90.9783 5.28711 90.943C5.28955 90.9383 5.29196 90.9336 5.29438 90.929C5.29625 90.9254 5.29812 90.9219 5.3 90.9185C5.41208 90.7177 5.5244 90.5168 5.63674 90.3159C6.03502 89.6035 6.43365 88.8906 6.82351 88.1748C6.90682 88.007 6.95327 87.8241 6.95989 87.6379C6.96651 87.4517 6.93316 87.2661 6.86196 87.0932C6.63608 86.433 5.92799 86.2831 5.47943 86.8263C5.2583 87.0977 5.09835 87.4114 5.01004 87.7471C4.83363 88.4381 4.68821 89.1361 4.54285 89.8339C4.49549 90.0613 4.44809 90.2888 4.39967 90.5159ZM62.8731 8.12437C62.8458 7.81222 62.7593 7.57186 62.4998 7.44076C62.3757 7.36835 62.2301 7.33897 62.0867 7.35739C61.9433 7.37581 61.8106 7.44095 61.71 7.54221C61.5344 7.72697 61.3901 7.93769 61.2823 8.1665C61.0004 8.72171 60.7299 9.28245 60.4591 9.84376C60.3774 10.013 60.2957 10.1823 60.2137 10.3515C60.2026 10.3739 60.1914 10.3961 60.1803 10.4182C60.1495 10.4793 60.119 10.5398 60.092 10.6028C60.0332 10.7046 60.0156 10.824 60.0425 10.9378C60.0695 11.0516 60.1391 11.1514 60.2377 11.2178C60.4732 11.3816 60.6895 11.2942 60.8785 11.1397C60.9915 11.0554 61.0918 10.9561 61.1765 10.8447L61.2437 10.7495C61.7163 10.079 62.1896 9.40756 62.6408 8.72369C62.7442 8.5339 62.8238 8.33268 62.8779 8.12437H62.8731ZM77.8086 99.0718C77.8086 98.3414 77.5154 98.1245 76.998 98.3664C76.6872 98.5131 76.3203 98.6957 76.1569 98.9641C75.6687 99.7682 75.2516 100.617 74.8365 101.461L74.8272 101.48C74.7023 101.736 74.9057 101.948 75.1909 101.872C75.4628 101.796 75.7184 101.672 75.9454 101.508C76.5835 101.026 77.1212 100.429 77.5298 99.7508C77.6456 99.534 77.7389 99.3066 77.8086 99.0718ZM76.0832 91.8331H76.1217C76.1045 91.9238 76.0943 92.0156 76.0912 92.1078C76.0993 92.4309 76.3043 92.576 76.6039 92.4559C76.738 92.4099 76.8566 92.3289 76.9467 92.2217L77.0383 92.0939C77.3592 91.6466 77.6809 91.198 77.9544 90.725C78.0394 90.5963 78.0702 90.4405 78.0404 90.2902C78.0105 90.1399 77.9223 90.0066 77.7942 89.9181C77.6722 89.8251 77.5244 89.7698 77.3699 89.7596C77.2154 89.7493 77.0613 89.7844 76.9275 89.8603C76.7736 89.9486 76.6402 90.067 76.5357 90.208C76.4312 90.3491 76.3579 90.5097 76.3203 90.6797C76.2486 90.949 76.197 91.2272 76.1448 91.508C76.1248 91.6161 76.1046 91.7247 76.0832 91.8331ZM4.84824 10.1533C4.80255 10.1733 4.75755 10.1887 4.7155 10.2031C4.62926 10.2327 4.55542 10.258 4.51342 10.3094C4.41461 10.4273 4.31381 10.5442 4.21296 10.6612C3.87073 11.058 3.5279 11.4555 3.26064 11.8967C3.07161 12.2088 3.06199 12.6505 3.05398 13.036C3.04597 13.4215 3.35836 13.5417 3.6243 13.2842C3.93669 12.9814 4.2651 12.6396 4.4253 12.2525C4.60301 11.8312 4.70538 11.3792 4.80755 10.928C4.84353 10.7691 4.87951 10.6103 4.91873 10.453C4.93028 10.4039 4.91085 10.3474 4.88662 10.2769C4.87389 10.2399 4.85983 10.199 4.84824 10.1533ZM75.7986 102.715C75.842 102.823 75.8844 102.927 75.9599 102.963C76.0328 102.985 76.1104 102.989 76.1854 102.975C76.2604 102.96 76.3305 102.928 76.3892 102.88C76.5553 102.691 76.6772 102.469 76.7465 102.229C76.7565 102.152 76.7407 102.073 76.7014 102.005C76.6622 101.938 76.6015 101.884 76.5285 101.852C76.4554 101.82 76.3738 101.812 76.2956 101.829C76.2175 101.845 76.1469 101.886 76.0944 101.945C75.9504 102.142 75.8305 102.354 75.7372 102.577C75.7598 102.62 75.7794 102.668 75.7986 102.715Z" fill="#E7881A"/>
<path d="M47.9311 0.603147C48.1217 0.603147 48.3123 0.603147 48.5014 0.610951C48.5616 0.6078 48.6219 0.616308 48.6787 0.635985C48.7356 0.655662 48.7878 0.686118 48.8325 0.725591C48.8772 0.765065 48.9134 0.812774 48.9391 0.865962C48.9647 0.91915 48.9793 0.976763 48.982 1.03547C49.2687 2.89588 49.0989 4.67824 48.0208 6.30453C46.7087 8.28979 44.8776 9.5181 42.4634 9.79591C39.78 10.1081 37.4972 9.26213 35.6869 7.29872C34.8174 6.39588 34.243 5.26154 34.0368 4.0399C33.925 3.31889 33.9377 2.57812 33.9503 1.83871C33.9543 1.60338 33.9583 1.36817 33.9583 1.1338C33.9583 0.810724 34.189 0.637484 34.519 0.618755C34.7108 0.607516 34.9039 0.607657 35.0959 0.607797L35.1598 0.607829L47.9311 0.603147Z" fill="#E7881A"/>
<path d="M95.9435 32.6579C89.9747 33.2829 86.6935 43.736 95.1466 47.2673C97.8185 48.4079 100.35 50.361 98.1935 52.1891C96.0529 54.0329 92.0685 48.7516 92.0841 48.7673L88.8966 53.0329C92.131 56.3298 95.3966 57.5016 98.3185 56.861C100.272 56.3923 101.725 55.5485 102.693 54.3454C103.678 53.1266 104.193 51.7829 104.256 50.2985C104.318 48.8141 103.959 47.4235 103.178 46.1579C102.397 44.8923 101.225 43.9704 99.6779 43.3923C96.9435 42.4391 94.4591 40.3141 96.631 38.4704C98.7872 36.6423 101.568 40.5798 101.568 40.5641L106.022 38.1423C105.225 36.9391 104.443 35.8923 103.647 35.0016C102.85 34.111 101.865 33.4391 100.678 33.0173C99.4904 32.5954 97.9122 32.4704 95.9435 32.6579ZM106.256 37.5641C106.256 38.2985 106.24 39.1579 106.193 40.1266C106.084 44.5954 105.897 50.8141 108.006 54.1735C108.709 55.3141 109.693 56.0641 110.99 56.3923C112.287 56.7204 113.959 56.486 116.037 55.6735L116.068 57.0173H119.881C119.881 53.9079 119.85 50.8454 119.772 47.8298C119.693 44.7829 119.662 41.6891 119.662 38.5485L114.912 37.7204C114.912 38.1423 114.959 38.8298 115.037 39.7985C115.131 40.8766 115.209 42.111 115.272 43.5016C115.334 44.8766 115.318 46.2048 115.24 47.5016C115.162 48.7985 114.943 49.8454 114.6 50.6735C114.256 51.486 113.725 51.8766 113.006 51.8454C112.287 51.736 111.756 51.2204 111.412 50.2673C111.084 49.3141 110.865 48.1266 110.772 46.7204C110.678 45.2985 110.662 43.861 110.709 42.3923C110.756 40.9079 110.818 39.611 110.897 38.486C110.959 37.5485 110.99 36.861 110.99 36.4391L106.256 37.5641ZM126.881 50.4391C128.475 50.2516 133.381 49.3766 133.975 44.6266C134.193 42.5485 133.897 40.9079 133.084 39.7048C132.272 38.5016 131.147 37.6735 129.709 37.2204C128.287 36.7673 126.74 36.611 125.1 36.7829C123.459 36.9391 121.928 37.3454 120.49 37.986L120.756 41.361L121.834 40.736L123.256 57.1266H126.756L126.881 50.4391ZM126.678 40.3923C128.1 40.4079 129.053 40.7204 129.522 41.3454C129.99 41.9704 130.131 42.6891 129.943 43.5016C129.756 44.3141 129.397 45.0016 128.85 45.5798C128.303 46.1579 127.74 46.3923 127.162 46.3141L126.678 40.3923ZM136.256 56.7048L143.397 56.0641L144.615 51.2985L139.897 51.9391L139.756 49.2048L144.615 48.9079V44.9391L139.256 45.8766L139.318 42.7673L146.256 42.0485V36.6266L134.397 37.0485L136.256 56.7048ZM152.725 50.4079C152.772 50.5485 153.037 50.9548 153.537 51.6266C154.053 52.2985 154.631 53.0641 155.272 53.8923C155.928 54.7204 156.506 55.4548 157.006 56.0954C157.522 56.736 157.772 57.0485 157.772 57.0485L161.49 54.861L156.193 49.4548C157.803 48.6423 158.912 47.5641 159.49 46.2204C160.084 44.8766 160.209 43.5016 159.865 42.0954C159.537 40.6735 158.772 39.4548 157.6 38.4235C156.428 37.3923 154.897 36.7829 152.99 36.5954C151.1 36.3923 148.881 36.861 146.334 37.9704L146.6 41.3298L147.662 40.7204L148.522 50.4704L149.1 57.1266H152.6L152.725 50.4079ZM155.85 42.7516C155.865 44.5329 154.287 46.5641 153.006 46.2829L152.522 40.3766C153.725 40.3766 154.568 40.611 155.084 41.0641C155.6 41.5173 155.85 42.0798 155.85 42.7516Z" fill="white"/>
<path d="M94.7247 64.4843C93.4747 64.6405 92.4122 65.203 91.5529 66.1718C90.6935 67.1249 90.1622 68.2811 89.9279 69.6093C89.6935 70.9374 89.8966 72.2343 90.5216 73.4999C91.1622 74.7655 92.3341 75.7811 94.0685 76.5468C96.2404 77.4686 98.3654 79.0936 96.5841 80.6093C94.8029 82.0936 91.5372 77.7811 91.5372 77.7811L88.8966 81.2968C91.5841 84.0311 94.2716 84.9999 96.6935 84.453C98.3029 84.0624 99.506 83.3749 100.303 82.3749C101.1 81.3593 101.537 80.2499 101.584 79.0311C101.631 77.7968 101.334 76.6718 100.693 75.6249C100.053 74.578 99.0841 73.8124 97.8029 73.3436C95.5529 72.5468 93.506 70.7811 95.2872 69.2811C97.0685 67.7655 99.3654 71.0155 99.3654 71.0155L103.037 68.9999C101.022 66.0311 99.6779 63.9843 94.7247 64.4843ZM104.365 70.1249L105.553 69.828L102.053 84.2186L108.772 84.4374L109.662 76.5155L112.037 76.4061L114.162 85.7655L119.537 84.4061L113.553 64.4686L104.834 66.1249L104.365 70.1249ZM110.975 69.2655L111.725 74.2655H109.334L109.943 69.453L110.975 69.2655ZM124.443 78.1249C126.037 77.9374 130.943 77.0624 131.537 72.3124C131.756 70.2343 131.459 68.5936 130.647 67.3905C129.834 66.1874 128.709 65.3593 127.272 64.9061C125.85 64.453 124.303 64.2968 122.662 64.4686C121.022 64.6249 119.49 65.0311 118.053 65.6718L118.318 69.0468L119.397 68.4218L120.818 84.8124H124.318L124.443 78.1249ZM124.24 68.078C125.662 68.0936 126.615 68.4061 127.084 69.0311C127.553 69.6561 127.693 70.3749 127.506 71.1874C127.318 71.9999 126.959 72.6874 126.412 73.2655C125.865 73.8436 125.303 74.078 124.725 73.9999L124.24 68.078ZM133.881 84.453H137.381L137.74 69.6249H132.162L133.881 84.453ZM137.959 67.7811V64.0311H131.959V67.7811H137.959ZM140.975 84.3905L148.115 83.7499L149.334 78.9843L144.615 79.6249L144.475 76.8905L149.334 76.5936V72.6249L143.975 73.5624L144.037 70.453L150.975 69.7343V64.3124L139.115 64.7343L140.975 84.3905ZM162.522 74.6718L157.678 64.7343L152.115 65.4999L152.709 85.7655L157.068 85.8436L157.381 75.1561L162.647 84.5468L167.787 84.453L167.615 63.9061L161.647 63.8436L162.522 74.6718ZM173.693 64.4843C172.443 64.6405 171.381 65.203 170.522 66.1718C169.662 67.1249 169.131 68.2811 168.897 69.6093C168.662 70.9374 168.865 72.2343 169.49 73.4999C170.131 74.7655 171.303 75.7811 173.037 76.5468C175.209 77.4686 177.334 79.0936 175.553 80.6093C173.772 82.0936 170.506 77.7811 170.506 77.7811L167.865 81.2968C170.553 84.0311 173.24 84.9999 175.662 84.453C177.272 84.0624 178.475 83.3749 179.272 82.3749C180.068 81.3593 180.506 80.2499 180.553 79.0311C180.6 77.7968 180.303 76.6718 179.662 75.6249C179.022 74.578 178.053 73.8124 176.772 73.3436C174.522 72.5468 172.475 70.7811 174.256 69.2811C176.037 67.7655 178.334 71.0155 178.334 71.0155L182.006 68.9999C179.99 66.0311 178.647 63.9843 173.693 64.4843Z" fill="white"/>
<path d="M94.9446 99.6623H93.3126V99.2943C93.3126 98.921 93.2219 98.601 93.0406 98.3343C92.8699 98.057 92.5766 97.9183 92.1606 97.9183C91.9366 97.9183 91.7499 97.961 91.6006 98.0463C91.4619 98.1316 91.3499 98.2436 91.2646 98.3823C91.1899 98.5103 91.1366 98.665 91.1046 98.8463C91.0726 99.017 91.0566 99.1983 91.0566 99.3903C91.0566 99.6143 91.0619 99.8063 91.0726 99.9663C91.0939 100.116 91.1366 100.249 91.2006 100.366C91.2646 100.473 91.3553 100.569 91.4726 100.654C91.6006 100.74 91.7713 100.825 91.9846 100.91L93.2326 101.406C93.5953 101.545 93.8886 101.71 94.1126 101.902C94.3366 102.084 94.5073 102.302 94.6246 102.558C94.7526 102.804 94.8379 103.092 94.8806 103.422C94.9233 103.742 94.9446 104.11 94.9446 104.526C94.9446 105.006 94.8966 105.454 94.8006 105.87C94.7046 106.276 94.5446 106.628 94.3206 106.926C94.1073 107.214 93.8193 107.444 93.4566 107.614C93.0939 107.785 92.6513 107.87 92.1286 107.87C91.7339 107.87 91.3659 107.801 91.0246 107.662C90.6833 107.524 90.3899 107.337 90.1446 107.102C89.8993 106.857 89.7019 106.569 89.5526 106.238C89.4139 105.908 89.3446 105.55 89.3446 105.166V104.558H90.9766V105.07C90.9766 105.369 91.0619 105.641 91.2326 105.886C91.4139 106.121 91.7126 106.238 92.1286 106.238C92.4059 106.238 92.6193 106.201 92.7686 106.126C92.9286 106.041 93.0459 105.929 93.1206 105.79C93.2059 105.641 93.2593 105.46 93.2806 105.246C93.3019 105.033 93.3126 104.798 93.3126 104.542C93.3126 104.244 93.3019 103.998 93.2806 103.806C93.2593 103.614 93.2113 103.46 93.1366 103.342C93.0726 103.225 92.9766 103.129 92.8486 103.054C92.7313 102.98 92.5713 102.9 92.3686 102.814L91.2006 102.334C90.4966 102.046 90.0219 101.668 89.7766 101.198C89.5419 100.718 89.4246 100.121 89.4246 99.4063C89.4246 98.9796 89.4833 98.5743 89.6006 98.1903C89.7179 97.8063 89.8886 97.4756 90.1126 97.1983C90.3473 96.921 90.6406 96.7023 90.9926 96.5423C91.3446 96.3716 91.7553 96.2863 92.2246 96.2863C92.6299 96.2863 92.9979 96.361 93.3286 96.5103C93.6699 96.6596 93.9579 96.857 94.1926 97.1023C94.4379 97.3476 94.6246 97.625 94.7526 97.9343C94.8806 98.233 94.9446 98.5423 94.9446 98.8623V99.6623ZM108.517 97.9183H106.629V96.3823H112.037V97.9183H110.149V107.774H108.517V97.9183ZM129.317 105.214C129.317 105.588 129.248 105.934 129.109 106.254C128.97 106.574 128.778 106.857 128.533 107.102C128.298 107.337 128.021 107.524 127.701 107.662C127.381 107.801 127.04 107.87 126.677 107.87C126.314 107.87 125.973 107.801 125.653 107.662C125.333 107.524 125.05 107.337 124.805 107.102C124.57 106.857 124.384 106.574 124.245 106.254C124.106 105.934 124.037 105.588 124.037 105.214V96.3823H125.669V105.054C125.669 105.46 125.765 105.758 125.957 105.95C126.149 106.142 126.389 106.238 126.677 106.238C126.965 106.238 127.205 106.142 127.397 105.95C127.589 105.758 127.685 105.46 127.685 105.054V96.3823H129.317V105.214ZM142.13 96.3823H144.546C145.474 96.3823 146.183 96.6436 146.674 97.1663C147.164 97.6783 147.41 98.3983 147.41 99.3263V104.654C147.41 105.721 147.148 106.51 146.626 107.022C146.114 107.524 145.372 107.774 144.402 107.774H142.13V96.3823ZM143.762 106.238H144.514C144.972 106.238 145.298 106.126 145.49 105.902C145.682 105.668 145.778 105.305 145.778 104.814V99.3263C145.778 98.8783 145.687 98.5316 145.506 98.2863C145.324 98.041 144.994 97.9183 144.514 97.9183H143.762V106.238ZM160.27 96.3823H161.902V107.774H160.27V96.3823ZM174.672 99.0703C174.672 98.6116 174.752 98.2063 174.912 97.8543C175.072 97.5023 175.28 97.2143 175.536 96.9903C175.802 96.7556 176.096 96.5796 176.416 96.4623C176.746 96.345 177.077 96.2863 177.408 96.2863C177.738 96.2863 178.064 96.345 178.384 96.4623C178.714 96.5796 179.008 96.7556 179.264 96.9903C179.53 97.2143 179.744 97.5023 179.904 97.8543C180.064 98.2063 180.144 98.6116 180.144 99.0703V105.086C180.144 105.556 180.064 105.966 179.904 106.318C179.744 106.66 179.53 106.948 179.264 107.182C179.008 107.406 178.714 107.577 178.384 107.694C178.064 107.812 177.738 107.87 177.408 107.87C177.077 107.87 176.746 107.812 176.416 107.694C176.096 107.577 175.802 107.406 175.536 107.182C175.28 106.948 175.072 106.66 174.912 106.318C174.752 105.966 174.672 105.556 174.672 105.086V99.0703ZM176.304 105.086C176.304 105.481 176.41 105.774 176.624 105.966C176.848 106.148 177.109 106.238 177.408 106.238C177.706 106.238 177.962 106.148 178.176 105.966C178.4 105.774 178.512 105.481 178.512 105.086V99.0703C178.512 98.6756 178.4 98.3876 178.176 98.2063C177.962 98.0143 177.706 97.9183 177.408 97.9183C177.109 97.9183 176.848 98.0143 176.624 98.2063C176.41 98.3876 176.304 98.6756 176.304 99.0703V105.086Z" fill="#7A7A78"/>
</g>
<defs>
<clipPath id="clip0_291_59">
<rect width="186" height="114" fill="white" transform="translate(0.0936279 0.587158)"/>
</clipPath>
</defs>
</svg>
