<svg width="289" height="86" viewBox="0 0 289 86" fill="none" xmlns="http://www.w3.org/2000/svg">
<path fill-rule="evenodd" clip-rule="evenodd" d="M257.959 0.606766H66.4505L49.229 7.6093L54.1891 0.606766H6.54239C2.92913 0.606766 0 3.56051 0 7.20413V18.9504C2.66095 21.7018 5.88012 25.2275 7.77747 27.3458L0 25.105V79.0094C0 82.653 2.92913 85.6068 6.54239 85.6068H12.6288L20.2483 81.2744L25.3377 85.6068H220.65L222.765 71.3611L228.632 85.6068H282.458C286.071 85.6068 289 82.653 289 79.0094V31.2162C288.026 30.4502 286.91 29.4077 285.638 28.0226C279.848 21.7162 284.633 15.4602 289 12.1235V7.20413C289 3.56051 286.071 0.606766 282.458 0.606766H271.892L262 10.1711L257.959 0.606766ZM69.8786 12.3043L65.1653 4.9601L58.9931 7.51593L69.8786 12.3043ZM232.009 75.8697L234.919 82.9278L229.674 80.4388L232.009 75.8697Z" fill="#E7881A"/>
</svg>
