<svg width="56" height="57" viewBox="0 0 56 57" fill="none" xmlns="http://www.w3.org/2000/svg">
<path fill-rule="evenodd" clip-rule="evenodd" d="M28 56.5872C43.464 56.5872 56 44.0511 56 28.5872C56 13.1232 43.464 0.587158 28 0.587158C12.536 0.587158 0 13.1232 0 28.5872C0 44.0511 12.536 56.5872 28 56.5872ZM36.145 14.2876C39.2015 14.2891 41.5468 16.1848 42.2005 19.173C42.2926 19.5966 42.2969 20.0289 42.2991 20.4611C42.3034 25.9058 42.3034 31.351 42.2991 36.7966C42.2955 40.253 39.6625 42.883 36.2047 42.8888H27.965V42.855C27.0711 42.855 26.1763 42.8605 25.2819 42.8659H25.2811H25.2804H25.2797C23.2199 42.8785 21.1601 42.8911 19.1047 42.837C16.5854 42.7701 14.1956 40.514 13.7993 38.0185C13.729 37.5616 13.6951 37.0999 13.6979 36.6377V20.4935C13.6979 16.8767 16.2841 14.2876 19.9059 14.2876C25.3194 14.2848 30.7325 14.2848 36.145 14.2876ZM27.8075 37.1864C32.4369 37.3403 36.483 33.5308 36.5866 28.8288C36.7009 23.6694 32.5081 19.967 28.047 20.0152C23.4774 19.8858 19.5535 23.6823 19.424 28.3498C19.2953 33.1065 23.0156 37.0275 27.8075 37.1864ZM35.5495 19.0263C35.5445 20.1518 36.4169 21.0149 37.5489 21.0055C38.6586 20.9962 39.495 20.1418 39.4899 19.0227C39.4796 18.5067 39.2673 18.0154 38.8985 17.6543C38.5298 17.2931 38.0341 17.0911 37.518 17.0916C37.0019 17.092 36.5065 17.295 36.1384 17.6568C35.7704 18.0186 35.5589 18.5103 35.5495 19.0263ZM22.0397 28.5965C22.0059 25.3746 24.6841 22.6417 27.8895 22.6273C31.2762 22.6129 33.9227 25.2084 33.9515 28.572C33.9788 31.8386 31.3272 34.524 28.0585 34.5412C24.7172 34.5599 22.0749 31.9493 22.0397 28.5965Z" fill="#7A7A78"/>
</svg>
