<svg width="46" height="45" viewBox="0 0 46 45" fill="none" xmlns="http://www.w3.org/2000/svg">
<circle cx="22.9999" cy="22.8326" r="22.1029" fill="#E7881A"/>
<path d="M13.5501 15.7502C13.3316 15.7502 13.1243 15.7953 12.9333 15.8694L22.366 23.9476C22.7737 24.2966 23.208 24.297 23.6167 23.9476L33.0668 15.8694C32.876 15.7951 32.6686 15.7502 32.4501 15.7502H13.5499H13.5501ZM11.8998 17.1548C11.8891 17.2291 11.8823 17.3072 11.8823 17.3846V28.2807C11.8823 29.1861 12.626 29.9152 13.5501 29.9152H32.4502C33.374 29.9152 34.118 29.1863 34.118 28.2807V17.3846C34.118 17.3072 34.1112 17.2291 34.1005 17.1546L24.711 25.1823C23.7314 26.0196 22.2511 26.021 21.2714 25.1823L11.8998 17.1546L11.8998 17.1548Z" fill="black"/>
</svg>
