<svg width="28" height="21" viewBox="0 0 28 21" fill="none" xmlns="http://www.w3.org/2000/svg">
<path fill-rule="evenodd" clip-rule="evenodd" d="M0.266235 1.37762C0.266235 0.82534 0.713951 0.377625 1.26624 0.377625L27 0.377629C27.5523 0.37763 28 0.825345 28 1.37763C28 1.92991 27.5523 2.37763 27 2.37763L1.26624 2.37762C0.713951 2.37762 0.266235 1.92991 0.266235 1.37762ZM0.266235 10.2436C0.266235 9.69131 0.713951 9.24359 1.26624 9.24359L27 9.2436C27.5523 9.2436 28 9.69131 28 10.2436C28 10.7959 27.5523 11.2436 27 11.2436L1.26624 11.2436C0.713951 11.2436 0.266235 10.7959 0.266235 10.2436ZM1.26624 18.1094C0.713951 18.1094 0.266235 18.5572 0.266235 19.1094C0.266235 19.6617 0.713951 20.1094 1.26624 20.1094L27 20.1094C27.5523 20.1094 28 19.6617 28 19.1094C28 18.5572 27.5523 18.1094 27 18.1094L1.26624 18.1094Z" fill="#B5B5B5"/>
</svg>
