<svg width="46" height="46" viewBox="0 0 46 46" fill="none" xmlns="http://www.w3.org/2000/svg">
<circle cx="22.9999" cy="22.9034" r="22.1029" fill="#E7881A"/>
<path fill-rule="evenodd" clip-rule="evenodd" d="M26.3537 15.0171C26.7334 15.9428 27.0478 17.0264 27.2766 18.2222H32.4785C30.9756 15.0666 28.001 12.7532 24.4467 12.1772C25.1873 12.7789 25.8362 13.7592 26.353 15.0179L26.3537 15.0171ZM27.2766 27.5849C27.0471 28.7807 26.7334 29.8643 26.3537 30.79C25.8369 32.0486 25.1873 33.0289 24.4473 33.6306C28.002 33.0541 30.9765 30.7405 32.4792 27.5857H27.2772L27.2766 27.5849ZM19.2203 27.5849C19.431 28.6293 19.7099 29.5739 20.0424 30.3852C20.7657 32.1465 21.7115 33.2356 22.7068 33.2356C23.7028 33.2356 24.648 32.1457 25.3713 30.3852C25.7044 29.5747 25.9833 28.6293 26.1934 27.5849H19.2192H19.2203ZM18.1381 27.5849H12.9361C14.4391 30.7405 17.4137 33.0539 20.968 33.6299C20.2274 33.0282 19.5785 32.0479 19.0616 30.7892C18.6819 29.8635 18.3676 28.78 18.1388 27.5842L18.1381 27.5849ZM17.9607 19.291H12.495C12.0987 20.4213 11.8823 21.6367 11.8823 22.9032C11.8823 24.1697 12.0979 25.3858 12.495 26.5154H17.9607C17.8001 25.3809 17.7125 24.1654 17.7125 22.9032C17.7125 21.6403 17.7995 20.4248 17.9607 19.291ZM18.1381 18.2221C18.3676 17.0263 18.6813 15.9427 19.061 15.017C19.5778 13.7584 20.2274 12.7781 20.9674 12.1764C17.4127 12.753 14.4382 15.0666 12.9355 18.2214H18.1374L18.1381 18.2221ZM19.2203 18.2221H26.1945C25.9838 17.1777 25.7048 16.2332 25.3723 15.4219C24.649 13.6605 23.7032 12.5715 22.7079 12.5715C21.7119 12.5715 20.7667 13.6613 20.0435 15.4219C19.7103 16.2323 19.4314 17.1777 19.2213 18.2221H19.2203ZM26.6374 22.9037C26.6374 21.633 26.5464 20.4162 26.3801 19.2915H19.0342C18.868 20.4169 18.7769 21.633 18.7769 22.9037C18.7769 24.1743 18.868 25.3911 19.0342 26.5158H26.3801C26.5464 25.3905 26.6374 24.1743 26.6374 22.9037ZM32.9198 19.2915H27.4542C27.6147 20.426 27.7024 21.6414 27.7024 22.9037C27.7024 24.1665 27.6154 25.382 27.4542 26.5158H32.9198C33.3162 25.3856 33.5326 24.1701 33.5326 22.9037C33.5326 21.6372 33.317 20.4211 32.9198 19.2915Z" fill="black"/>
</svg>
