<svg width="99" height="182" viewBox="0 0 99 182" fill="none" xmlns="http://www.w3.org/2000/svg">
<path d="M33.456 175.21H30.168L23.544 167.218V175.21H20.784V158.41H23.544V165.946L29.928 158.41H33.216L26.424 166.594L33.456 175.21ZM37.5249 160.93C37.2049 161.25 36.8209 161.41 36.3729 161.41C35.9249 161.41 35.5329 161.25 35.1969 160.93C34.8769 160.594 34.7169 160.202 34.7169 159.754C34.7169 159.306 34.8769 158.922 35.1969 158.602C35.5169 158.266 35.9089 158.098 36.3729 158.098C36.8369 158.098 37.2289 158.266 37.5489 158.602C37.8689 158.922 38.0289 159.306 38.0289 159.754C38.0289 160.202 37.8609 160.594 37.5249 160.93ZM35.0769 175.21V163.21H37.6689V175.21H35.0769ZM46.3425 175.522C44.5345 175.522 43.0225 174.914 41.8065 173.698C40.6065 172.482 40.0065 170.986 40.0065 169.21C40.0065 167.418 40.6065 165.922 41.8065 164.722C43.0225 163.506 44.5345 162.898 46.3425 162.898C47.5105 162.898 48.5745 163.178 49.5345 163.738C50.4945 164.298 51.2145 165.05 51.6945 165.994L49.4625 167.29C49.1905 166.714 48.7745 166.266 48.2145 165.946C47.6705 165.61 47.0385 165.442 46.3185 165.442C45.2625 165.442 44.3745 165.802 43.6545 166.522C42.9505 167.242 42.5985 168.138 42.5985 169.21C42.5985 170.282 42.9505 171.178 43.6545 171.898C44.3745 172.618 45.2625 172.978 46.3185 172.978C47.0225 172.978 47.6545 172.81 48.2145 172.474C48.7905 172.138 49.2225 171.69 49.5105 171.13L51.7425 172.402C51.2305 173.362 50.4945 174.122 49.5345 174.682C48.5745 175.242 47.5105 175.522 46.3425 175.522ZM64.224 175.21H61.128L56.208 169.666V175.21H53.616V158.41H56.208V168.514L60.864 163.21H64.032L58.752 169.09L64.224 175.21ZM72.4292 165.706H69.4532V171.466C69.4532 171.962 69.5652 172.322 69.7892 172.546C70.0132 172.754 70.3412 172.874 70.7732 172.906C71.2212 172.922 71.7732 172.914 72.4292 172.882V175.21C70.4452 175.45 69.0212 175.282 68.1572 174.706C67.2932 174.114 66.8612 173.034 66.8612 171.466V165.706H64.6532V163.21H66.8612V160.618L69.4532 159.85V163.21H72.4292V165.706ZM79.9519 175.522C78.1919 175.522 76.6959 174.914 75.4639 173.698C74.2319 172.482 73.6159 170.986 73.6159 169.21C73.6159 167.434 74.2319 165.938 75.4639 164.722C76.6959 163.506 78.1919 162.898 79.9519 162.898C81.7279 162.898 83.2239 163.506 84.4399 164.722C85.6719 165.938 86.2879 167.434 86.2879 169.21C86.2879 170.986 85.6719 172.482 84.4399 173.698C83.2239 174.914 81.7279 175.522 79.9519 175.522ZM77.2879 171.922C78.0079 172.642 78.8959 173.002 79.9519 173.002C81.0079 173.002 81.8959 172.642 82.6159 171.922C83.3359 171.202 83.6959 170.298 83.6959 169.21C83.6959 168.122 83.3359 167.218 82.6159 166.498C81.8959 165.778 81.0079 165.418 79.9519 165.418C78.8959 165.418 78.0079 165.778 77.2879 166.498C76.5679 167.218 76.2079 168.122 76.2079 169.21C76.2079 170.298 76.5679 171.202 77.2879 171.922Z" fill="white"/>
<path d="M77.9695 87.8949L3.61587 131.401L1.55749 123.791C-0.252299 117.117 0.365877 109.495 6.32888 105.989C15.0165 100.885 16.591 99.9717 16.591 99.9717C19.71 96.1135 22.3916 91.3537 24.5809 86.9718C27.806 80.4983 29.9754 74.8204 30.9366 74.0282L27.622 69.628L22.3186 62.5894L57.4371 42.1697L58.632 44.833L49.293 65.9554C48.0774 65.9174 46.8655 66.1074 45.7199 66.5156C44.1978 67.0555 42.8315 67.9608 41.7409 69.152C40.6504 70.3433 39.869 71.784 39.4653 73.3478C39.0616 74.9115 39.048 76.5505 39.4256 78.1207C39.8032 79.691 40.5605 81.1445 41.6311 82.3538C42.7016 83.563 44.0526 84.4909 45.5655 85.0561C47.0784 85.6213 48.707 85.8064 50.3081 85.5952C51.9093 85.384 53.4341 84.783 54.7488 83.8449C56.0634 82.9068 57.1276 81.6603 57.8481 80.2149L74.8869 81.0121L77.7888 87.4756L77.9695 87.8949Z" fill="white"/>
<path d="M87.0436 17.0204L80.7143 38.234L89.1003 24.4965C89.9936 27.7499 90.9085 31.0728 91.8018 34.3012L83.7124 56.36L95.1048 46.1858C96.8416 52.3626 98.1029 56.7279 98.2885 57.0412C98.9696 58.2013 86.4238 74.1115 86.4238 74.1115L75.2419 77.1808L73.1172 77.0797L58.8759 76.4168C58.9979 74.4256 58.5121 72.4442 57.4827 70.7353C56.4533 69.0264 54.9291 67.6706 53.1118 66.8475L60.7553 49.5584L82.4959 0.37439C82.4959 0.37439 84.4831 7.66822 87.0436 17.0204Z" fill="white"/>
<path d="M54.6982 73.7963C54.9763 74.5773 55.0892 75.4074 55.0296 76.2343C54.9314 77.6543 54.3324 78.9933 53.3392 80.0129C52.7447 80.6229 52.0276 81.0998 51.2352 81.4123C50.4429 81.7247 49.5933 81.8655 48.7425 81.8254C47.8917 81.7853 47.0591 81.5652 46.2996 81.1797C45.5402 80.7941 44.8711 80.2518 44.3366 79.5886C44.0915 79.2848 43.8772 78.9572 43.6969 78.6108C43.5639 78.362 43.4503 78.1032 43.3572 77.8369C42.8214 76.3338 42.9045 74.6795 43.5883 73.2378C44.272 71.796 45.5004 70.6848 47.0033 70.1486C47.169 70.0906 47.3347 70.0392 47.5004 69.9961C48.2082 69.8067 48.9449 69.7505 49.6732 69.8304C50.7963 69.9557 51.8617 70.3935 52.7485 71.0939C53.6353 71.7944 54.3079 72.7295 54.6899 73.793L54.6982 73.7963Z" fill="white"/>
</svg>
