<svg width="102" height="185" viewBox="0 0 102 185" fill="none" xmlns="http://www.w3.org/2000/svg">
<path d="M81.9596 14.628H73.3731C73.0466 13.2564 72.399 11.9819 71.4837 10.9095C70.7769 10.0751 69.9244 9.37616 68.9676 8.84666L67.1176 7.81411L66.6794 9.89541C66.4807 10.8545 66.0914 11.764 65.5347 12.5699C65.7533 9.61224 64.8251 6.68393 62.9427 4.39225C61.0602 2.10056 58.368 0.621327 55.4242 0.261318L53.3186 0L53.6909 2.08939C54.0737 4.25596 53.759 6.4881 52.7921 8.46438C51.8253 10.4407 50.2562 12.0591 48.3108 13.0867C47.4775 11.4642 46.1727 10.1319 44.5678 9.26509C42.963 8.39828 41.1333 8.03756 39.3196 8.23037L37.2198 8.46162L38.0488 10.4042C38.6184 11.735 38.7833 13.2041 38.5229 14.628H20.0445C9.61488 14.628 1.13013 23.1151 1.13013 33.5459V91.0775C1.13013 101.509 9.61488 109.996 20.0445 109.996H28.1789C30.0871 114.147 33.0839 117.703 36.8509 120.287C41.0167 123.145 45.9499 124.674 51.0014 124.674C56.053 124.674 60.9862 123.145 65.1519 120.287C68.9192 117.703 71.916 114.147 73.824 109.996H81.9538C92.3834 109.996 100.868 101.509 100.868 91.0775V33.5482C100.874 23.1174 92.3892 14.628 81.9596 14.628ZM39.8411 16.233C39.907 16.0375 39.9752 15.8283 40.0295 15.6143C40.5315 13.7155 40.4003 11.7048 39.6561 9.88731C40.495 9.8155 41.34 9.88944 42.1536 10.1058C43.3857 10.4338 44.5122 11.0745 45.4238 11.9659C46.3355 12.8572 47.0013 13.969 47.3569 15.1935L47.3915 15.3091L47.5072 15.2675C50.1698 14.3193 52.4153 12.467 53.8525 10.0334C55.2897 7.5997 55.8275 4.73892 55.3722 1.94948C56.5034 2.10671 57.5988 2.4588 58.6097 2.99013C63.3273 5.47959 65.2132 11.3789 62.8151 16.1393L62.7307 16.307H63.8188L63.8453 16.2931C64.9575 15.675 65.9275 14.8301 66.6924 13.8133C67.4572 12.7964 68 11.6303 68.2854 10.3903C69.0111 10.8137 69.6591 11.3581 70.2014 11.9998C71.2082 13.1825 71.8106 14.656 71.9208 16.2052L71.9277 16.3116H81.9596C91.4618 16.3116 99.1881 24.0448 99.1881 33.5482V91.0775C99.1881 100.582 91.4572 108.315 81.9596 108.315H72.7255L72.6966 108.387C69.0613 117.257 60.5453 122.988 51.0026 122.988C41.4599 122.988 32.9474 117.257 29.312 108.387L29.2831 108.315H20.0445C10.5422 108.315 2.81598 100.582 2.81598 91.0775V33.5482C2.81598 24.0448 10.5468 16.3116 20.0445 16.3116H39.8168L39.8411 16.233Z" fill="white" stroke="white"/>
<path d="M66.0069 46.0868C60.4573 46.0807 55.1056 48.1484 51.0019 51.8844C46.9005 48.1475 41.55 46.0796 36.0015 46.0868C23.6514 46.0868 13.6392 56.1348 13.6392 68.5313C13.6339 73.3254 15.1639 77.9952 18.0051 81.8566C20.8464 85.7181 24.8495 88.5682 29.4281 89.9894C31.2569 85.7881 34.2726 82.2122 38.105 79.7007C41.9375 77.1891 46.4198 75.8512 51.0019 75.8512C55.584 75.8512 60.0663 77.1891 63.8988 79.7007C67.7312 82.2122 70.7469 85.7881 72.5757 89.9894C77.1551 88.569 81.1593 85.7192 84.0014 81.8577C86.8436 77.9962 88.3743 73.326 88.3693 68.5313C88.3693 56.1383 78.3571 46.0868 66.0069 46.0868ZM41.0371 75.3764H33.7271V58.3792H41.0371V75.3764ZM70.1221 75.3764H62.8121V58.3792H70.1221V75.3764Z" fill="white"/>
<path d="M68.987 92.0766C66.0813 84.9747 59.1239 79.9773 51.0034 79.9773C42.8829 79.9773 35.9244 84.9747 33.0199 92.0766C32.0605 94.4257 31.5684 96.9393 31.5711 99.4767C31.5711 99.6467 31.5711 99.8109 31.5792 99.9797C31.5792 100.087 31.5791 100.191 31.5919 100.294C31.6046 100.397 31.6 100.525 31.6081 100.641C31.6056 100.68 31.6056 100.718 31.6081 100.757C31.6162 100.935 31.6323 101.104 31.6497 101.282C31.667 101.46 31.6821 101.637 31.7075 101.814C31.7318 102.066 31.7688 102.313 31.8058 102.561C31.8509 102.85 31.9006 103.139 31.963 103.418C31.9919 103.576 32.0243 103.733 32.0659 103.889C32.1076 104.045 32.1365 104.202 32.1816 104.36C32.2856 104.764 32.4013 105.16 32.5285 105.552C32.599 105.767 32.673 105.982 32.7516 106.192C32.8048 106.34 32.8591 106.488 32.9204 106.638C32.9817 106.787 33.028 106.919 33.0904 107.054C33.0985 107.075 33.1066 107.095 33.1193 107.121C33.1725 107.253 33.2349 107.384 33.2881 107.513C33.5641 108.13 33.8728 108.732 34.2131 109.315C34.2663 109.41 34.3288 109.505 34.382 109.6C34.5716 109.914 34.7705 110.22 34.9763 110.525C35.0341 110.607 35.0919 110.694 35.1544 110.777C35.1708 110.803 35.1886 110.827 35.2075 110.851C35.2943 110.975 35.3856 111.103 35.4804 111.222C35.5833 111.362 35.6909 111.499 35.7972 111.635L35.9707 111.85L36.3048 112.25C36.4494 112.415 36.5904 112.576 36.7385 112.732C36.8865 112.888 37.0356 113.05 37.1882 113.203C37.3201 113.339 37.4565 113.471 37.5929 113.603C37.7907 113.793 37.9884 113.974 38.1954 114.157C38.3399 114.284 38.4844 114.408 38.6324 114.531C38.7932 114.663 38.9539 114.792 39.1192 114.919C39.4777 115.196 39.8407 115.46 40.2212 115.712C40.3981 115.828 40.5761 115.943 40.753 116.059C40.9299 116.175 41.1288 116.29 41.3185 116.398C41.4873 116.492 41.6526 116.587 41.8261 116.682L42.181 116.868C42.3082 116.934 42.4366 116.995 42.5638 117.058C42.7788 117.161 42.9974 117.264 43.2205 117.359C43.3362 117.413 43.4518 117.458 43.5674 117.508C43.8519 117.623 44.1456 117.739 44.4346 117.842C44.5988 117.903 44.7688 117.957 44.9376 118.015C45.148 118.085 45.3631 118.151 45.577 118.213C45.7632 118.266 45.9482 118.321 46.1343 118.366C46.4026 118.436 46.6709 118.497 46.9437 118.555C47.1126 118.592 47.2906 118.626 47.456 118.655C47.5222 118.671 47.5894 118.684 47.6572 118.692C47.8098 118.721 47.967 118.745 48.1197 118.77C48.218 118.782 48.3128 118.799 48.4122 118.811C48.5776 118.832 48.7383 118.852 48.9036 118.869C49.1013 118.889 49.2991 118.91 49.498 118.923C49.5754 118.931 49.654 118.935 49.7373 118.939C49.8818 118.952 50.0217 118.955 50.1663 118.96C50.2565 118.968 50.3513 118.973 50.4472 118.973C50.6288 118.973 50.8103 118.981 50.9919 118.981C51.1734 118.981 51.3549 118.981 51.5365 118.973C51.6313 118.973 51.7261 118.973 51.8163 118.96C51.9608 118.96 52.1019 118.952 52.2464 118.939C52.3239 118.939 52.4071 118.931 52.4858 118.923C52.6835 118.91 52.8812 118.889 53.0789 118.869C53.2443 118.852 53.405 118.832 53.5703 118.811C53.6698 118.799 53.7646 118.782 53.864 118.77C54.0537 118.741 54.2433 118.708 54.4329 118.676C54.6434 118.637 54.8504 118.597 55.0562 118.551C55.0909 118.546 55.1253 118.54 55.1591 118.531C55.3082 118.497 55.4609 118.465 55.6089 118.423C55.6875 118.407 55.7696 118.386 55.8482 118.366C56.0344 118.321 56.2194 118.266 56.4055 118.213C56.6206 118.151 56.8345 118.085 57.045 118.015C57.2554 117.946 57.4705 117.874 57.6763 117.797C57.9075 117.709 58.1515 117.615 58.3862 117.519C58.5342 117.458 58.6834 117.396 58.8279 117.33C59.2777 117.132 59.7229 116.913 60.1565 116.682C60.3253 116.587 60.5034 116.492 60.6641 116.398C60.8537 116.29 61.0434 116.175 61.2295 116.059C61.4157 115.943 61.5845 115.828 61.7614 115.712C62.1376 115.46 62.5049 115.196 62.8633 114.919C63.0287 114.792 63.1894 114.663 63.3501 114.531C63.4981 114.408 63.6427 114.284 63.7872 114.157C63.993 113.974 64.1919 113.793 64.3896 113.603C64.5261 113.471 64.6625 113.339 64.7943 113.203C64.9261 113.066 65.0499 112.943 65.1736 112.806C65.4661 112.498 65.7436 112.18 66.0119 111.85C66.0685 111.78 66.1275 111.706 66.1842 111.635C66.2917 111.499 66.3992 111.362 66.5021 111.222C66.597 111.107 66.6883 110.975 66.775 110.851C66.794 110.827 66.8117 110.803 66.8282 110.777C66.8906 110.694 66.9438 110.607 67.0063 110.525C67.2121 110.22 67.4098 109.914 67.5994 109.6C67.658 109.505 67.7147 109.41 67.7694 109.315C68.1097 108.732 68.4185 108.13 68.6944 107.513C68.7557 107.384 68.8101 107.253 68.8632 107.121C68.876 107.095 68.8841 107.075 68.8922 107.054C68.9546 106.919 69.0078 106.777 69.061 106.638C69.1142 106.498 69.1766 106.34 69.2309 106.192C69.3096 105.982 69.3836 105.767 69.4541 105.552C69.5316 105.312 69.6067 105.073 69.6726 104.826C69.7224 104.657 69.7675 104.491 69.8079 104.323C69.8461 104.178 69.8831 104.034 69.912 103.889C69.9409 103.745 69.986 103.576 70.0149 103.418C70.0762 103.134 70.1305 102.85 70.1722 102.561C70.2092 102.313 70.2462 102.066 70.2704 101.814C70.2959 101.637 70.3155 101.459 70.3282 101.282C70.341 101.105 70.3618 100.935 70.3699 100.757C70.3699 100.72 70.3699 100.683 70.3699 100.641C70.3791 100.525 70.3872 100.41 70.3872 100.294C70.3872 100.179 70.3988 100.087 70.3988 99.9797C70.3988 99.8109 70.408 99.6467 70.408 99.4767C70.4189 96.9412 69.9363 94.4277 68.987 92.0766V92.0766ZM49.7223 87.145C49.6806 87.167 49.6425 87.1913 49.6066 87.2144C49.515 87.264 49.4204 87.3081 49.3234 87.3462L49.2447 87.3752C49.1765 87.4006 49.1071 87.4237 49.0354 87.4434L48.9372 87.4688C48.8678 87.485 48.7961 87.4977 48.7244 87.5093L48.6307 87.5243C48.5267 87.5367 48.4221 87.5433 48.3174 87.544C47.6026 87.544 46.917 87.26 46.4115 86.7545C45.9061 86.2491 45.6221 85.5635 45.6221 84.8487C45.6221 84.1339 45.9061 83.4483 46.4115 82.9428C46.917 82.4374 47.6026 82.1534 48.3174 82.1534C48.4222 82.1539 48.5268 82.1608 48.6307 82.1742L48.7244 82.1881C48.7961 82.1997 48.8678 82.2124 48.9372 82.2297C48.9707 82.2367 49.0031 82.2459 49.0354 82.2552C49.1071 82.2748 49.1765 82.2968 49.2447 82.3222L49.3234 82.3511C49.419 82.3899 49.5124 82.4339 49.6032 82.4829C49.6425 82.5061 49.6806 82.5304 49.7188 82.5523C50.1115 82.7656 50.5513 82.8772 50.9982 82.8772C51.4451 82.8772 51.8849 82.7656 52.2776 82.5523C52.3227 82.5292 52.3667 82.5026 52.4048 82.4783C52.4199 82.4702 52.436 82.4644 52.4511 82.4575C52.5228 82.4205 52.5956 82.3858 52.6708 82.3546C52.7031 82.3407 52.7378 82.3303 52.7702 82.3176C52.8326 82.2956 52.8951 82.2748 52.9587 82.2563C52.9957 82.2459 53.0315 82.2367 53.0743 82.2286C53.1402 82.2124 53.2084 82.1997 53.2767 82.1893C53.3102 82.1893 53.3437 82.1777 53.3773 82.1742C53.4812 82.1608 53.5858 82.1539 53.6906 82.1534C54.4054 82.1534 55.091 82.4374 55.5965 82.9428C56.1019 83.4483 56.3859 84.1339 56.3859 84.8487C56.3859 85.5635 56.1019 86.2491 55.5965 86.7545C55.091 87.26 54.4054 87.544 53.6906 87.544C53.5859 87.5433 53.4813 87.5367 53.3773 87.5243L53.2767 87.5081C53.2084 87.4977 53.1402 87.485 53.0743 87.47L52.9587 87.4411C52.8951 87.4226 52.8326 87.4029 52.7702 87.3798C52.7378 87.3682 52.7031 87.3566 52.6708 87.3428C52.5957 87.3125 52.5224 87.2781 52.4511 87.2399C52.436 87.2329 52.4199 87.2271 52.4048 87.219C52.3667 87.1948 52.3227 87.1693 52.2776 87.145C51.8849 86.9318 51.4451 86.8201 50.9982 86.8201C50.5513 86.8201 50.1115 86.9318 49.7188 87.145H49.7223ZM50.5617 112.018L50.4611 109.048C58.1319 108.787 59.3298 99.4594 59.3413 99.3657L62.2898 99.7126C61.7984 103.85 58.7146 111.739 50.5617 112.018Z" fill="white"/>
<path d="M20.2642 161.41V178.21H17.5042V166.234L12.3922 174.682H12.0562L6.94415 166.21V178.21H4.18415V161.41H7.16015L12.2242 169.81L17.3122 161.41H20.2642ZM25.8938 163.93C25.5738 164.25 25.1898 164.41 24.7418 164.41C24.2938 164.41 23.9018 164.25 23.5658 163.93C23.2458 163.594 23.0858 163.202 23.0858 162.754C23.0858 162.306 23.2458 161.922 23.5658 161.602C23.8858 161.266 24.2778 161.098 24.7418 161.098C25.2058 161.098 25.5978 161.266 25.9178 161.602C26.2378 161.922 26.3978 162.306 26.3978 162.754C26.3978 163.202 26.2298 163.594 25.8938 163.93ZM23.4458 178.21V166.21H26.0378V178.21H23.4458ZM35.3594 165.898C36.7354 165.898 37.8474 166.338 38.6954 167.218C39.5434 168.098 39.9674 169.306 39.9674 170.842V178.21H37.3754V171.106C37.3754 170.21 37.1354 169.522 36.6554 169.042C36.1754 168.562 35.5194 168.322 34.6874 168.322C33.7754 168.322 33.0394 168.61 32.4794 169.186C31.9194 169.746 31.6394 170.61 31.6394 171.778V178.21H29.0474V166.21H31.6394V167.746C32.4234 166.514 33.6634 165.898 35.3594 165.898ZM49.4543 168.706H46.4783V174.466C46.4783 174.962 46.5903 175.322 46.8143 175.546C47.0383 175.754 47.3663 175.874 47.7983 175.906C48.2463 175.922 48.7983 175.914 49.4543 175.882V178.21C47.4703 178.45 46.0463 178.282 45.1823 177.706C44.3183 177.114 43.8863 176.034 43.8863 174.466V168.706H41.6783V166.21H43.8863V163.618L46.4783 162.85V166.21H49.4543V168.706ZM61.9304 164.05H54.8504V168.754H61.6904V171.394H54.8504V178.21H52.0904V161.41H61.9304V164.05ZM64.3443 178.21V160.69H66.9363V178.21H64.3443ZM72.3938 163.93C72.0738 164.25 71.6898 164.41 71.2418 164.41C70.7938 164.41 70.4018 164.25 70.0658 163.93C69.7458 163.594 69.5858 163.202 69.5858 162.754C69.5858 162.306 69.7458 161.922 70.0658 161.602C70.3858 161.266 70.7778 161.098 71.2418 161.098C71.7058 161.098 72.0978 161.266 72.4178 161.602C72.7378 161.922 72.8978 162.306 72.8978 162.754C72.8978 163.202 72.7298 163.594 72.3938 163.93ZM69.9458 178.21V166.21H72.5378V178.21H69.9458ZM81.2114 178.522C79.4034 178.522 77.8914 177.914 76.6754 176.698C75.4754 175.482 74.8754 173.986 74.8754 172.21C74.8754 170.418 75.4754 168.922 76.6754 167.722C77.8914 166.506 79.4034 165.898 81.2114 165.898C82.3794 165.898 83.4434 166.178 84.4034 166.738C85.3634 167.298 86.0834 168.05 86.5634 168.994L84.3314 170.29C84.0594 169.714 83.6434 169.266 83.0834 168.946C82.5394 168.61 81.9074 168.442 81.1874 168.442C80.1314 168.442 79.2434 168.802 78.5234 169.522C77.8194 170.242 77.4674 171.138 77.4674 172.21C77.4674 173.282 77.8194 174.178 78.5234 174.898C79.2434 175.618 80.1314 175.978 81.1874 175.978C81.8914 175.978 82.5234 175.81 83.0834 175.474C83.6594 175.138 84.0914 174.69 84.3794 174.13L86.6114 175.402C86.0994 176.362 85.3634 177.122 84.4034 177.682C83.4434 178.242 82.3794 178.522 81.2114 178.522ZM99.0929 178.21H95.9969L91.0769 172.666V178.21H88.4849V161.41H91.0769V171.514L95.7329 166.21H98.9009L93.6209 172.09L99.0929 178.21Z" fill="white"/>
</svg>
