<svg width="156" height="201" viewBox="0 0 156 201" fill="none" xmlns="http://www.w3.org/2000/svg">
<path fill-rule="evenodd" clip-rule="evenodd" d="M126.335 21.8179V68.1636H90.3035V102.426H48.2203L29.73 84.8501V0.982422H105.673L126.335 21.8179ZM55.5309 25.5905V98.3182H83.2366V62.1467H120.178V25.5905H55.5309Z" fill="white"/>
<path d="M126.225 76.6923H98.1376V102.422H126.225V76.6923Z" fill="white"/>
<path d="M32.4787 148.41C34.0627 148.41 35.3827 148.938 36.4387 149.994C37.5107 151.05 38.0467 152.362 38.0467 153.93C38.0467 155.482 37.5107 156.794 36.4387 157.866C35.3827 158.922 34.0627 159.45 32.4787 159.45H29.0467V165.21H26.2867V148.41H32.4787ZM32.4787 156.858C33.2947 156.858 33.9667 156.586 34.4947 156.042C35.0227 155.482 35.2867 154.778 35.2867 153.93C35.2867 153.082 35.0227 152.386 34.4947 151.842C33.9667 151.282 33.2947 151.002 32.4787 151.002H29.0467V156.858H32.4787ZM45.0952 165.522C43.3352 165.522 41.8392 164.914 40.6072 163.698C39.3752 162.482 38.7592 160.986 38.7592 159.21C38.7592 157.434 39.3752 155.938 40.6072 154.722C41.8392 153.506 43.3352 152.898 45.0952 152.898C46.8712 152.898 48.3672 153.506 49.5832 154.722C50.8152 155.938 51.4312 157.434 51.4312 159.21C51.4312 160.986 50.8152 162.482 49.5832 163.698C48.3672 164.914 46.8712 165.522 45.0952 165.522ZM42.4312 161.922C43.1512 162.642 44.0392 163.002 45.0952 163.002C46.1512 163.002 47.0392 162.642 47.7592 161.922C48.4792 161.202 48.8392 160.298 48.8392 159.21C48.8392 158.122 48.4792 157.218 47.7592 156.498C47.0392 155.778 46.1512 155.418 45.0952 155.418C44.0392 155.418 43.1512 155.778 42.4312 156.498C41.7112 157.218 41.3512 158.122 41.3512 159.21C41.3512 160.298 41.7112 161.202 42.4312 161.922ZM55.8686 156.522C55.8686 156.922 56.0846 157.242 56.5166 157.482C56.9646 157.706 57.5006 157.906 58.1246 158.082C58.7646 158.242 59.4046 158.434 60.0446 158.658C60.6846 158.882 61.2206 159.266 61.6526 159.81C62.1006 160.338 62.3246 161.01 62.3246 161.826C62.3246 162.978 61.8766 163.882 60.9806 164.538C60.1006 165.194 58.9886 165.522 57.6446 165.522C56.4606 165.522 55.4446 165.274 54.5966 164.778C53.7486 164.282 53.1326 163.594 52.7486 162.714L54.9806 161.418C55.3966 162.57 56.2846 163.146 57.6446 163.146C59.0046 163.146 59.6846 162.698 59.6846 161.802C59.6846 161.418 59.4606 161.106 59.0126 160.866C58.5806 160.626 58.0446 160.426 57.4046 160.266C56.7806 160.09 56.1486 159.89 55.5086 159.666C54.8686 159.442 54.3246 159.074 53.8766 158.562C53.4446 158.034 53.2286 157.37 53.2286 156.57C53.2286 155.466 53.6446 154.578 54.4766 153.906C55.3246 153.234 56.3726 152.898 57.6206 152.898C58.6126 152.898 59.4926 153.122 60.2606 153.57C61.0446 154.002 61.6446 154.61 62.0606 155.394L59.8766 156.618C59.4606 155.706 58.7086 155.25 57.6206 155.25C57.1246 155.25 56.7086 155.362 56.3726 155.586C56.0366 155.794 55.8686 156.106 55.8686 156.522ZM70.8303 155.706H67.8543V161.466C67.8543 161.962 67.9663 162.322 68.1903 162.546C68.4143 162.754 68.7423 162.874 69.1743 162.906C69.6223 162.922 70.1743 162.914 70.8303 162.882V165.21C68.8463 165.45 67.4223 165.282 66.5583 164.706C65.6943 164.114 65.2623 163.034 65.2623 161.466V155.706H63.0543V153.21H65.2623V150.618L67.8543 149.85V153.21H70.8303V155.706ZM78.353 165.522C76.593 165.522 75.097 164.914 73.865 163.698C72.633 162.482 72.017 160.986 72.017 159.21C72.017 157.434 72.633 155.938 73.865 154.722C75.097 153.506 76.593 152.898 78.353 152.898C80.129 152.898 81.625 153.506 82.841 154.722C84.073 155.938 84.689 157.434 84.689 159.21C84.689 160.986 84.073 162.482 82.841 163.698C81.625 164.914 80.129 165.522 78.353 165.522ZM75.689 161.922C76.409 162.642 77.297 163.002 78.353 163.002C79.409 163.002 80.297 162.642 81.017 161.922C81.737 161.202 82.097 160.298 82.097 159.21C82.097 158.122 81.737 157.218 81.017 156.498C80.297 155.778 79.409 155.418 78.353 155.418C77.297 155.418 76.409 155.778 75.689 156.498C74.969 157.218 74.609 158.122 74.609 159.21C74.609 160.298 74.969 161.202 75.689 161.922ZM103.243 153.21V165.21H100.651V155.706H96.6669V165.21H94.0749V155.706H90.0669V165.21H87.4749V155.706H85.6509V153.21H87.4749V152.97C87.4749 151.322 87.9309 150.074 88.8429 149.226C89.7709 148.362 91.1229 147.986 92.8989 148.098V150.594C91.0109 150.418 90.0669 151.21 90.0669 152.97V153.21H94.0749V152.73C94.0749 149.482 95.8829 147.858 99.4989 147.858C100.347 147.858 101.235 147.962 102.163 148.17V150.546C101.315 150.418 100.427 150.354 99.4989 150.354C98.5389 150.354 97.8269 150.53 97.3629 150.882C96.8989 151.234 96.6669 151.85 96.6669 152.73V153.21H103.243ZM111.916 165.522C110.108 165.522 108.596 164.914 107.38 163.698C106.18 162.482 105.58 160.986 105.58 159.21C105.58 157.418 106.18 155.922 107.38 154.722C108.596 153.506 110.108 152.898 111.916 152.898C113.084 152.898 114.148 153.178 115.108 153.738C116.068 154.298 116.788 155.05 117.268 155.994L115.036 157.29C114.764 156.714 114.348 156.266 113.788 155.946C113.244 155.61 112.612 155.442 111.892 155.442C110.836 155.442 109.948 155.802 109.228 156.522C108.524 157.242 108.172 158.138 108.172 159.21C108.172 160.282 108.524 161.178 109.228 161.898C109.948 162.618 110.836 162.978 111.892 162.978C112.596 162.978 113.228 162.81 113.788 162.474C114.364 162.138 114.796 161.69 115.084 161.13L117.316 162.402C116.804 163.362 116.068 164.122 115.108 164.682C114.148 165.242 113.084 165.522 111.916 165.522ZM121.042 160.314C121.234 161.226 121.674 161.93 122.362 162.426C123.05 162.906 123.89 163.146 124.882 163.146C126.258 163.146 127.29 162.65 127.978 161.658L130.114 162.906C128.93 164.65 127.178 165.522 124.858 165.522C122.906 165.522 121.33 164.93 120.13 163.746C118.93 162.546 118.33 161.034 118.33 159.21C118.33 157.418 118.922 155.922 120.106 154.722C121.29 153.506 122.81 152.898 124.666 152.898C126.426 152.898 127.866 153.514 128.986 154.746C130.122 155.978 130.69 157.474 130.69 159.234C130.69 159.506 130.658 159.866 130.594 160.314H121.042ZM121.018 158.202H128.074C127.898 157.226 127.49 156.49 126.85 155.994C126.226 155.498 125.49 155.25 124.642 155.25C123.682 155.25 122.882 155.514 122.242 156.042C121.602 156.57 121.194 157.29 121.018 158.202ZM44.1365 194.522C42.5205 194.522 41.1445 194.154 40.0085 193.418C38.8885 192.682 38.1045 191.674 37.6565 190.394L40.0325 189.002C40.7045 190.89 42.0965 191.834 44.2085 191.834C45.2485 191.834 46.0245 191.634 46.5365 191.234C47.0645 190.818 47.3285 190.282 47.3285 189.626C47.3285 188.938 47.0485 188.418 46.4885 188.066C45.9285 187.698 44.9365 187.298 43.5125 186.866C42.7125 186.626 42.0645 186.402 41.5685 186.194C41.0725 185.986 40.5445 185.698 39.9845 185.33C39.4405 184.946 39.0325 184.474 38.7605 183.914C38.4885 183.354 38.3525 182.698 38.3525 181.946C38.3525 180.458 38.8805 179.282 39.9365 178.418C40.9925 177.538 42.2645 177.098 43.7525 177.098C45.0965 177.098 46.2725 177.426 47.2805 178.082C48.2885 178.738 49.0645 179.642 49.6085 180.794L47.2805 182.138C46.5765 180.57 45.4005 179.786 43.7525 179.786C42.9525 179.786 42.3125 179.978 41.8325 180.362C41.3525 180.73 41.1125 181.234 41.1125 181.874C41.1125 182.498 41.3525 182.994 41.8325 183.362C42.3285 183.714 43.2165 184.09 44.4965 184.49C45.1365 184.698 45.6005 184.858 45.8885 184.97C46.1925 185.066 46.6085 185.226 47.1365 185.45C47.6805 185.674 48.0885 185.898 48.3605 186.122C48.6325 186.346 48.9205 186.626 49.2245 186.962C49.5445 187.298 49.7685 187.682 49.8965 188.114C50.0245 188.546 50.0885 189.034 50.0885 189.578C50.0885 191.098 49.5365 192.306 48.4325 193.202C47.3445 194.082 45.9125 194.522 44.1365 194.522ZM58.6428 184.706H55.6668V190.466C55.6668 190.962 55.7788 191.322 56.0028 191.546C56.2268 191.754 56.5548 191.874 56.9868 191.906C57.4348 191.922 57.9868 191.914 58.6428 191.882V194.21C56.6588 194.45 55.2348 194.282 54.3708 193.706C53.5068 193.114 53.0748 192.034 53.0748 190.466V184.706H50.8668V182.21H53.0748V179.618L55.6668 178.85V182.21H58.6428V184.706ZM69.1989 182.21H71.7909V194.21H69.1989V192.674C68.4149 193.906 67.1749 194.522 65.4789 194.522C64.1029 194.522 62.9909 194.082 62.1429 193.202C61.2949 192.322 60.8709 191.114 60.8709 189.578V182.21H63.4629V189.314C63.4629 190.21 63.7029 190.898 64.1829 191.378C64.6629 191.858 65.3189 192.098 66.1509 192.098C67.0629 192.098 67.7989 191.818 68.3589 191.258C68.9189 190.682 69.1989 189.81 69.1989 188.642V182.21ZM84.3258 177.41H86.9178V194.21H84.3258V192.482C83.3498 193.842 81.9498 194.522 80.1258 194.522C78.4778 194.522 77.0698 193.914 75.9018 192.698C74.7338 191.466 74.1498 189.97 74.1498 188.21C74.1498 186.434 74.7338 184.938 75.9018 183.722C77.0698 182.506 78.4778 181.898 80.1258 181.898C81.9498 181.898 83.3498 182.57 84.3258 183.914V177.41ZM77.8218 190.97C78.5418 191.69 79.4458 192.05 80.5338 192.05C81.6218 192.05 82.5258 191.69 83.2458 190.97C83.9658 190.234 84.3258 189.314 84.3258 188.21C84.3258 187.106 83.9658 186.194 83.2458 185.474C82.5258 184.738 81.6218 184.37 80.5338 184.37C79.4458 184.37 78.5418 184.738 77.8218 185.474C77.1018 186.194 76.7418 187.106 76.7418 188.21C76.7418 189.314 77.1018 190.234 77.8218 190.97ZM92.387 179.93C92.067 180.25 91.683 180.41 91.235 180.41C90.787 180.41 90.395 180.25 90.059 179.93C89.739 179.594 89.579 179.202 89.579 178.754C89.579 178.306 89.739 177.922 90.059 177.602C90.379 177.266 90.771 177.098 91.235 177.098C91.699 177.098 92.091 177.266 92.411 177.602C92.731 177.922 92.891 178.306 92.891 178.754C92.891 179.202 92.723 179.594 92.387 179.93ZM89.939 194.21V182.21H92.531V194.21H89.939ZM101.205 194.522C99.4446 194.522 97.9486 193.914 96.7166 192.698C95.4846 191.482 94.8686 189.986 94.8686 188.21C94.8686 186.434 95.4846 184.938 96.7166 183.722C97.9486 182.506 99.4446 181.898 101.205 181.898C102.981 181.898 104.477 182.506 105.693 183.722C106.925 184.938 107.541 186.434 107.541 188.21C107.541 189.986 106.925 191.482 105.693 192.698C104.477 193.914 102.981 194.522 101.205 194.522ZM98.5406 190.922C99.2606 191.642 100.149 192.002 101.205 192.002C102.261 192.002 103.149 191.642 103.869 190.922C104.589 190.202 104.949 189.298 104.949 188.21C104.949 187.122 104.589 186.218 103.869 185.498C103.149 184.778 102.261 184.418 101.205 184.418C100.149 184.418 99.2606 184.778 98.5406 185.498C97.8206 186.218 97.4606 187.122 97.4606 188.21C97.4606 189.298 97.8206 190.202 98.5406 190.922ZM111.978 185.522C111.978 185.922 112.194 186.242 112.626 186.482C113.074 186.706 113.61 186.906 114.234 187.082C114.874 187.242 115.514 187.434 116.154 187.658C116.794 187.882 117.33 188.266 117.762 188.81C118.21 189.338 118.434 190.01 118.434 190.826C118.434 191.978 117.986 192.882 117.09 193.538C116.21 194.194 115.098 194.522 113.754 194.522C112.57 194.522 111.554 194.274 110.706 193.778C109.858 193.282 109.242 192.594 108.858 191.714L111.09 190.418C111.506 191.57 112.394 192.146 113.754 192.146C115.114 192.146 115.794 191.698 115.794 190.802C115.794 190.418 115.57 190.106 115.122 189.866C114.69 189.626 114.154 189.426 113.514 189.266C112.89 189.09 112.258 188.89 111.618 188.666C110.978 188.442 110.434 188.074 109.986 187.562C109.554 187.034 109.338 186.37 109.338 185.57C109.338 184.466 109.754 183.578 110.586 182.906C111.434 182.234 112.482 181.898 113.73 181.898C114.722 181.898 115.602 182.122 116.37 182.57C117.154 183.002 117.754 183.61 118.17 184.394L115.986 185.618C115.57 184.706 114.818 184.25 113.73 184.25C113.234 184.25 112.818 184.362 112.482 184.586C112.146 184.794 111.978 185.106 111.978 185.522Z" fill="white"/>
</svg>
