<svg width="83" height="115" viewBox="0 0 83 115" fill="none" xmlns="http://www.w3.org/2000/svg">
<path fill-rule="evenodd" clip-rule="evenodd" d="M71.9149 0.579778L71.9389 0.596696V1.4335C71.6627 1.45041 71.5254 1.30376 71.3947 1.1641C71.3685 1.13611 71.3425 1.1084 71.3158 1.08234C71.0765 0.827774 70.7831 0.627169 70.4561 0.494537C70.129 0.361906 69.7762 0.300447 69.4222 0.314453C65.3136 0.336894 61.206 0.334308 57.0986 0.331722C55.7783 0.33089 54.458 0.330059 53.1378 0.330059H52.4665C52.4891 0.351504 52.5071 0.371316 52.5226 0.388389C52.5499 0.418523 52.5695 0.440141 52.5931 0.447115C54.5587 1.02615 56.4043 1.88456 58.2337 2.7773C58.5983 2.9486 58.9477 3.14906 59.2783 3.37663C59.3625 3.43445 59.4342 3.50793 59.4892 3.59284C59.5441 3.67775 59.5814 3.77241 59.5987 3.87138C59.6032 4.28757 59.5618 4.70303 59.4753 5.11061C58.8874 8.04324 57.7275 10.7199 55.8195 13.0907C54.2922 14.9963 52.3787 16.5752 50.1981 17.7292C47.5435 19.1417 44.7144 19.9314 41.6626 19.8471C41.3956 19.8398 41.127 19.8461 40.8585 19.8525C40.3859 19.8637 39.9136 19.8749 39.4518 19.8112C37.3035 19.5131 35.2225 18.9856 33.2728 18.0008C30.418 16.5883 27.9894 14.4767 26.2256 11.8733C24.8126 9.78971 23.9635 7.49542 23.4461 5.07159C23.1882 3.88253 22.5506 2.80351 21.6246 1.98913C20.9614 1.38356 20.2004 0.881002 19.3113 0.653134C18.4604 0.430603 17.5827 0.320366 16.7016 0.325377C14.5346 0.347227 12.3682 0.347227 10.2023 0.325377C8.89331 0.297091 7.58489 0.401705 6.29818 0.637525C4.58403 0.968402 3.11018 1.71912 2.0977 3.1628C0.899401 4.87025 0.22976 6.74939 0.22976 8.83298V31.7166C0.326434 31.3546 0.398068 30.9848 0.46963 30.6154C0.503611 30.44 0.537575 30.2646 0.574197 30.0903C0.902237 28.5955 1.36873 27.1328 1.96794 25.7202C2.26111 25.0116 2.74172 24.662 3.56194 24.7416C4.09879 24.7936 4.6381 24.8264 5.17726 24.8592C6.01367 24.9101 6.84991 24.961 7.67591 25.0834C9.34232 25.3215 10.9935 25.6519 12.6213 26.0729C16.3024 27.0357 19.8097 28.5443 23.02 30.546C24.8585 31.664 26.5826 32.9513 28.1688 34.3901L28.2314 34.4482C29.3627 35.4981 30.5008 36.5544 31.5106 37.7129C32.5689 38.9604 33.5613 40.2596 34.4839 41.6054C36.0699 43.8435 37.2538 46.3001 38.2551 48.8379C39.2312 51.352 39.9064 53.9674 40.2672 56.6322C40.4971 58.1435 40.6218 59.6682 40.6405 61.1958C40.6437 62.2602 40.6052 63.3278 40.5283 64.3891L40.5057 64.7051C40.4312 65.7532 40.3562 66.8072 40.1583 67.8368C39.8603 69.3788 39.4918 70.9161 39.0369 72.4222C38.1846 75.2487 37.1241 77.9941 35.3715 80.4429C34.733 81.3339 34.1349 82.2517 33.5367 83.1696C33.2676 83.5826 32.9978 83.9965 32.7249 84.4071C32.5657 84.6444 32.4087 84.8822 32.2519 85.1197L32.2509 85.1213C32.0089 85.4878 31.7673 85.8536 31.5186 86.216C28.9186 90.0071 26.051 93.5843 22.7572 96.8291C22.2664 97.3264 21.7124 97.7606 21.1088 98.1214C21.0548 98.0608 21.0025 98.0038 20.9521 97.9488C20.8153 97.7997 20.6923 97.6656 20.5881 97.5174L20.0901 96.8134C19.0397 95.3291 17.9901 93.846 16.9692 92.342C16.631 91.8428 16.3339 91.3181 16.0359 90.792C15.8737 90.5055 15.7112 90.2187 15.5418 89.9353C15.2758 89.4874 15.372 89.1159 15.7356 88.7491C16.1003 88.3806 16.4515 87.9983 16.8027 87.6158C16.9915 87.4102 17.1803 87.2046 17.3713 87.0011C20.2437 83.9323 22.8788 80.6604 25.2548 77.2121C25.7065 76.5582 26.1551 75.898 26.5492 75.2113C28.2489 72.2521 29.412 69.1103 29.8734 65.7376C29.9487 65.1882 30.0095 64.6372 30.0624 64.0847C30.1393 63.3044 30.2066 62.524 30.2691 61.7436C30.2647 61.6282 30.2502 61.5133 30.2258 61.4003L30.2141 61.2919C30.1905 61.0752 30.167 60.8585 30.1505 60.6418C30.1312 60.3939 30.1165 60.1455 30.1018 59.897C30.0713 59.3818 30.0408 58.8665 29.9695 58.3568C29.7686 56.9601 29.4618 55.5797 29.0515 54.2271C28.557 52.6281 27.9136 51.0765 27.1291 49.5917C25.5223 46.4827 23.3195 43.8326 20.641 41.5508C18.8323 40.041 16.8321 38.7638 14.6895 37.7504C13.1905 37.0385 11.6299 36.4567 10.0261 36.0117C7.9899 35.4264 5.88486 35.2095 3.77822 35.03C3.05319 34.9654 2.32304 34.979 1.60108 35.0706C1.44408 35.5591 1.47292 35.954 1.82376 36.2817C2.16978 36.6039 2.25333 37.0278 2.34109 37.4732C2.3541 37.5392 2.3672 37.6057 2.38126 37.6723C2.04805 37.5912 1.82912 37.3761 1.60553 37.1564C1.52384 37.0761 1.44152 36.9952 1.35277 36.9201C1.11135 36.7155 0.873317 36.506 0.620757 36.2838C0.526594 36.2009 0.429823 36.1157 0.330688 36.0289C0.286105 36.1183 0.252757 36.2126 0.231364 36.3098C0.224956 38.3034 0.224956 40.2985 0.231364 42.2952C0.253949 42.4274 0.296037 42.5557 0.356321 42.6761L0.451723 42.6427C0.562985 42.6039 0.6502 42.5735 0.735996 42.5403C2.26592 41.9519 3.82468 41.4556 5.46994 41.3151C6.53528 41.2246 7.60702 41.1996 8.67396 41.1996C9.4339 41.1962 10.1924 41.2636 10.9392 41.4009C12.7154 41.7254 14.4354 42.2934 16.048 43.0881C18.3606 44.2468 20.3983 45.8646 22.0299 47.8374C23.3386 49.4337 24.3573 51.2363 25.0417 53.1674C25.7001 54.9825 25.9645 56.8476 26.0606 58.7486C26.0622 59.2342 26.0279 59.7193 25.958 60.2001C25.9196 60.8467 25.8479 61.491 25.7434 62.1307C25.2649 64.5993 24.2643 66.9438 22.8053 69.0151C21.7079 70.6217 20.3192 72.02 18.7073 73.1417C17.226 74.1497 15.6456 75.0118 13.9894 75.7154C12.6775 76.266 11.3069 76.6727 9.9027 76.9281C9.32598 77.0358 9.19781 76.9609 8.96552 76.4427C8.87214 76.2336 8.77828 76.025 8.68451 75.8167C8.35851 75.0925 8.03335 74.3702 7.73358 73.6334C7.61666 73.3464 7.4989 73.0598 7.38115 72.7732C6.65026 70.994 5.91943 69.215 5.38824 67.3654C5.31753 67.1443 5.26082 66.9191 5.21842 66.6912C5.20656 66.6393 5.20747 66.5854 5.22106 66.5339C5.23465 66.4825 5.26055 66.4348 5.29663 66.395C5.33271 66.3551 5.37796 66.3241 5.42868 66.3045C5.4794 66.2849 5.53416 66.2773 5.58849 66.2823C5.75489 66.2882 5.91998 66.3134 6.08031 66.3572C7.56003 66.6343 9.09042 66.489 10.4874 65.9389C12.6614 65.1164 14.2057 63.6665 15.05 61.5267C15.5145 60.3515 15.5706 59.1434 15.4376 57.9105C15.2662 56.2811 14.4965 54.7669 13.2701 53.6465C11.9869 52.4291 10.4682 51.68 8.66275 51.5036C6.96301 51.3366 5.42348 51.5785 4.11944 52.7975C1.57705 55.1745 0.271412 58.0915 0.248984 61.483C0.209878 67.5955 0.217016 73.7089 0.224153 79.8218C0.226957 82.2233 0.22976 84.6248 0.22976 87.0261C0.22976 87.1752 0.239629 87.3235 0.250483 87.4867C0.255992 87.5696 0.261754 87.6562 0.266608 87.7487C0.821807 87.6283 1.24918 87.3281 1.66568 87.0356C1.98347 86.8124 2.29493 86.5937 2.652 86.4626C2.76734 86.5117 2.86014 86.6003 2.91273 86.7117C2.96531 86.8231 2.97401 86.9494 2.93716 87.0667C2.87773 87.3621 2.79525 87.6527 2.69045 87.936C2.55276 88.3036 2.41734 88.6721 2.28191 89.0406L2.28143 89.0419C1.89547 90.0923 1.50946 91.1427 1.07082 92.1718C0.385155 93.7654 0.135242 95.4213 0.10961 97.1241C0.0887835 98.4679 0.0855824 99.8148 0.117623 101.159C0.143786 101.994 0.306009 102.82 0.598226 103.606C1.05233 104.863 1.67748 106.04 2.30251 107.216L2.30313 107.218C2.44303 107.481 2.58292 107.744 2.72089 108.009C2.79845 108.152 2.8902 108.288 2.99483 108.414C4.90443 110.784 7.24657 112.519 10.3208 113.144C10.6082 113.203 10.8974 113.257 11.1865 113.311C11.8563 113.435 12.5262 113.56 13.174 113.752C14.3631 114.089 15.5964 114.253 16.8346 114.241C22.4042 114.264 27.9747 114.27 33.5447 114.276L33.6527 114.276C35.165 114.278 36.6772 114.279 38.1894 114.281C38.323 114.268 38.4557 114.246 38.5867 114.217C36.6736 113.277 34.8992 112.09 33.3113 110.688C33.1613 110.557 33.0111 110.425 32.8609 110.293C31.8424 109.401 30.8225 108.507 29.883 107.54C29.17 106.807 28.5466 105.989 27.9253 105.173C27.7941 105.001 27.663 104.829 27.5312 104.658C27.1708 104.182 27.2028 104.104 27.5312 103.674C29.4408 101.188 31.2975 98.6583 33.0165 96.0378C33.1631 95.827 33.3352 95.6342 33.5291 95.4634C34.1058 94.9409 34.6825 94.4218 35.2592 93.9027L35.2602 93.9018C35.6444 93.5559 36.0286 93.2101 36.4128 92.8632C36.6386 92.6588 36.8629 92.4481 37.068 92.2233C37.1389 92.1202 37.1929 92.007 37.2282 91.8878C37.0578 91.8846 36.8917 91.9398 36.7588 92.0439C36.558 92.1925 36.3593 92.3437 36.1606 92.4949L36.1593 92.496C35.8703 92.7159 35.5815 92.9357 35.2866 93.1473C35.0971 93.2513 34.8981 93.3381 34.6922 93.4064C34.9678 92.9431 35.2368 92.4957 35.5004 92.0571L35.5017 92.0548C36.0742 91.1023 36.6216 90.1916 37.1577 89.2517C37.9411 87.8782 38.7197 86.4876 39.4197 85.0689C39.8914 84.1133 40.3161 83.1363 40.7616 82.1115C40.9636 81.6469 41.1702 81.1715 41.387 80.6848C41.5392 81.036 41.6353 81.2576 41.7346 81.4808C41.9032 81.8644 42.0687 82.2495 42.2341 82.6344C42.6017 83.4897 42.9693 84.3449 43.3703 85.1844C44.4257 87.3951 45.6932 89.4959 46.9594 91.5945C47.1404 91.8945 47.3215 92.1947 47.5019 92.4949C49.7577 96.236 52.2354 99.8459 54.9224 103.306C54.9895 103.394 55.0504 103.469 55.1041 103.536C55.481 104.002 55.5085 104.036 54.9224 104.856C54.9161 104.865 54.9098 104.873 54.9035 104.882C54.8946 104.895 54.8857 104.907 54.8768 104.92C54.8238 104.994 54.7707 105.069 54.7109 105.137C53.9462 106.028 53.1762 106.912 52.4008 107.79C52.2931 107.881 52.1735 107.959 52.0452 108.02C51.8658 107.857 51.7056 107.714 51.5454 107.583C51.424 107.469 51.2704 107.393 51.1045 107.366C50.9386 107.338 50.768 107.359 50.6146 107.427C50.2541 107.587 50.2125 107.921 50.2541 108.258C50.269 108.54 50.3207 108.818 50.4079 109.087C50.5793 109.512 50.4191 109.779 50.0987 110.053C48.4695 111.483 46.8386 112.902 44.9162 113.964C44.7532 114.071 44.596 114.185 44.4452 114.308H44.9515C52.2834 114.314 59.6163 114.314 66.9503 114.308C69.6093 114.334 72.221 113.623 74.4797 112.255C77.6085 110.359 79.7632 107.734 80.5514 104.18C80.9058 102.577 81.1665 100.958 81.4264 99.3431C81.4684 99.0825 81.5103 98.8218 81.5526 98.5615C81.7272 97.4877 81.8442 96.403 81.9563 95.3214C82.0027 94.8736 82.0209 94.4265 82.0409 93.9362L82.041 93.9349C82.0499 93.7147 82.0593 93.4857 82.0717 93.2441C81.9376 93.3679 81.8159 93.4847 81.701 93.5951C81.4726 93.8144 81.2707 94.0082 81.0512 94.1805C80.8561 94.3444 80.6202 94.4553 80.3671 94.502C79.8961 94.5598 79.6494 94.2539 79.7968 93.8137C79.9058 93.4854 80.0548 93.1711 80.2406 92.8773C80.2718 92.8282 80.303 92.7791 80.3341 92.73C80.3731 92.6686 80.4121 92.6071 80.4511 92.5456C80.944 91.7683 81.438 90.9893 81.9836 90.2474C82.4928 89.5583 82.4218 88.8414 82.3427 88.0434L82.3344 87.9594C82.2961 87.977 82.2607 87.9936 82.2275 88.0092C82.1914 88.0263 82.158 88.0423 82.1264 88.0574C82.0376 88.1 81.9636 88.1354 81.8874 88.167C81.6906 88.2481 81.493 88.3344 81.295 88.4208C80.834 88.6221 80.371 88.8243 79.9138 88.9629C79.2601 89.1612 78.842 88.7179 79.0343 88.0687C79.1136 87.8256 79.2105 87.5883 79.3242 87.3585C80.2523 85.3504 81.1857 83.3443 82.1245 81.3403C82.3111 80.9389 82.4051 80.5026 82.4001 80.0621V51.1774C82.4001 51.0674 82.3939 50.9546 82.3856 50.8027C82.3812 50.722 82.3762 50.6302 82.3712 50.5219C82.2712 50.6795 82.1788 50.8268 82.0912 50.9665C81.8491 51.3526 81.6429 51.6812 81.41 52.0124C81.3048 52.162 81.2197 52.3248 81.1336 52.4896C80.96 52.8216 80.7823 53.1616 80.428 53.4171C80.3631 53.3715 80.2987 53.3273 80.2351 53.2836C80.0851 53.1806 79.939 53.0803 79.7984 52.9707C79.0683 52.4064 78.2286 51.9918 77.3297 51.7518C75.2215 51.1993 73.1789 51.3663 71.2677 52.4479C68.8535 53.8135 67.6856 55.9439 67.394 58.5863C67.3375 59.0956 67.4355 59.5965 67.5342 60.1006C67.5474 60.168 67.5606 60.2355 67.5735 60.3031C67.8688 62.0363 68.8128 63.6016 70.2232 64.6966C72.0992 66.159 74.2154 66.7614 76.6184 66.4134C76.8276 66.3835 77.0403 66.3761 77.2781 66.3678C77.4008 66.3634 77.5303 66.3589 77.6693 66.3509C77.6592 66.5835 77.6324 66.815 77.5892 67.0439C76.7732 70.0022 75.5478 72.7984 74.3211 75.5974C74.1751 75.9305 74.0291 76.2637 73.8838 76.5972C73.7236 76.9624 73.5858 77.0389 73.1357 76.9421C72.2081 76.7423 71.2789 76.5379 70.3754 76.2554C68.6452 75.7123 67.0528 74.8741 65.5085 73.9486C65.3915 73.8779 65.2694 73.8165 65.1293 73.746C65.0622 73.7123 64.9908 73.6764 64.9141 73.6365C64.8728 73.7901 64.8359 73.9301 64.801 74.0621C64.7534 74.2421 64.7095 74.4083 64.6642 74.5729C64.6145 74.8225 64.5394 75.0667 64.4399 75.3018C64.3955 75.3757 64.3366 75.4404 64.2665 75.4921C64.1964 75.5438 64.1165 75.5815 64.0314 75.603C63.9593 75.6171 63.7863 75.4079 63.7399 75.2753C63.5947 74.8511 63.4562 74.424 63.3174 73.9965C63.1346 73.4331 62.9516 72.8689 62.753 72.3098C62.6477 72.0048 62.4755 71.7258 62.2484 71.492C60.6672 69.9415 59.3946 68.119 58.4949 66.1168C57.6554 64.258 57.0643 62.3289 56.9986 60.2875L56.995 60.1737C56.9575 59.0059 56.9197 57.8262 57.0547 56.6728C57.2421 55.0855 57.7419 53.5638 58.3507 52.067C59.4865 49.2764 61.3064 47.0009 63.6517 45.1124C66.4841 42.8321 69.8035 41.6163 73.424 41.2527C75.1769 41.0563 76.9513 41.1534 78.6706 41.5398C79.3717 41.7111 80.0625 41.9182 80.7529 42.1252C81.0815 42.2237 81.4106 42.3224 81.74 42.417C81.8602 42.451 81.9818 42.4793 82.1019 42.5072C82.1579 42.5202 82.2137 42.5331 82.2687 42.5465C82.4449 41.9909 82.4625 35.7245 82.2847 35.0893C82.1552 35.0622 82.0241 35.0424 81.8922 35.03C80.4648 34.9582 79.0407 34.941 77.6229 35.1611C77.2781 35.2138 76.9321 35.2611 76.5861 35.3083C75.8261 35.412 75.0658 35.5158 74.3195 35.6777C71.7674 36.2519 69.3094 37.1685 67.016 38.4012C64.0448 39.987 61.4076 42.1051 59.243 44.6442C57.3075 46.9117 55.7515 49.4626 54.6324 52.2028C53.6136 54.6313 53.1041 57.1738 52.851 59.7568C52.6902 61.5131 52.7369 63.2816 52.9904 65.0274C53.2122 66.7723 53.5874 68.4955 54.1118 70.1779C54.9753 72.8265 56.2873 75.2659 57.8893 77.5586C59.8757 80.4513 62.0656 83.2064 64.4431 85.804C65.3328 86.7717 66.223 87.7383 67.1137 88.7039C67.6263 89.2689 67.6552 89.3609 67.3059 90.057C67.1069 90.4783 66.88 90.8865 66.6267 91.2791C65.1774 93.4027 63.7164 95.5196 62.2436 97.6297C61.8591 98.1823 61.7438 98.2057 61.2423 97.764C60.6648 97.2468 60.1083 96.7021 59.5516 96.157C59.4213 96.0295 59.2903 95.9013 59.1597 95.774C56.4715 93.1551 54.2111 90.1975 52.0612 87.1587C51.4035 86.2287 50.773 85.2787 50.1427 84.3291L50.141 84.3266C49.8538 83.8939 49.5666 83.4612 49.2769 83.0306C49.0376 82.6758 48.7948 82.3231 48.552 81.9703L48.5508 81.9686C47.9994 81.1674 47.4478 80.3661 46.9364 79.5408C45.9623 77.9675 45.2366 76.2632 44.6054 74.5464C43.7983 72.3163 43.1957 70.0208 42.8048 67.6869C42.5399 66.1535 42.4552 64.6152 42.3705 63.0758C42.3486 62.6786 42.3267 62.2814 42.3018 61.8841C42.2812 61.5661 42.3163 61.2453 42.3515 60.9239C42.3795 60.668 42.4075 60.4117 42.4075 60.1564C42.4123 57.898 42.7968 55.6895 43.2774 53.492C43.9087 50.7341 44.8819 48.0613 46.1754 45.5322C48.0608 41.8027 50.5623 38.4002 53.5799 35.4608C54.8308 34.2556 56.1692 33.1399 57.5849 32.1223C59.8402 30.4913 62.2702 29.1029 64.8324 27.9817C67.7844 26.6902 70.8941 25.7728 74.0856 25.252C75.8425 24.9457 77.6265 24.8129 79.4107 24.8555C79.5886 24.848 79.7642 24.8967 79.9114 24.9943C80.0587 25.0919 80.1696 25.2332 80.2277 25.3971L80.558 26.137C80.9788 27.0793 81.3995 28.0214 81.8121 28.9665C81.9325 29.2426 82.0387 29.5235 82.1619 29.8491C82.2239 30.0132 82.2902 30.1887 82.3648 30.3806V18.2817L81.2045 19.4501C80.1748 20.4872 79.1656 21.5036 78.1547 22.5191C78.1435 22.5332 78.1051 22.5253 78.0859 22.5191C78.0733 22.515 78.0628 22.505 78.0371 22.4803C78.0233 22.4672 78.0052 22.4498 77.9801 22.427C78.0582 22.2954 78.1394 22.1639 78.221 22.0316C78.3755 21.7814 78.5318 21.5282 78.6722 21.2658C79.2055 20.2724 79.736 19.2777 80.2665 18.283C80.877 17.1383 81.4875 15.9936 82.1021 14.8512C82.3104 14.4863 82.417 14.0747 82.4113 13.6572C82.4027 12.8844 82.4056 12.1115 82.4084 11.3382C82.4099 10.9513 82.4113 10.564 82.4113 10.1768V8.14781C81.7929 9.99261 81.7929 9.9926 81.3011 10.1487C81.3011 10.0562 81.2994 9.96667 81.2978 9.87902C81.2946 9.70921 81.2916 9.54656 81.3011 9.38392C81.3158 9.12085 81.3348 8.85809 81.3539 8.59536C81.3783 8.25797 81.4027 7.92064 81.418 7.58282C81.4869 6.04393 80.883 4.68609 80.1909 3.35633C80.0858 3.17382 79.9553 3.00628 79.8032 2.85846C78.8853 1.90953 77.8039 1.20251 76.4919 0.905973C75.8994 0.770834 75.2957 0.684437 74.6922 0.598065C74.4733 0.566729 74.2543 0.535397 74.036 0.501741C73.954 0.504452 73.8734 0.523019 73.7989 0.556366C73.7936 0.779989 73.8864 0.9802 73.979 1.18022C74.1121 1.4674 74.2449 1.75419 74.0872 2.1093L71.9389 0.596696V0.567292L71.9149 0.579778ZM41.4287 33.4084C43.2137 33.4099 44.9967 33.2915 46.765 33.0541C48.9281 32.75 51.0626 32.2761 53.1474 31.637C55.2308 30.9836 57.2521 30.1554 59.1885 29.1616C62.3621 27.5555 65.2767 25.5048 67.8394 23.0747C69.3533 21.6279 70.8111 20.1327 72.0543 18.4565C72.5188 17.8278 72.9583 17.1832 73.399 16.5369C73.5905 16.2561 73.7827 15.9742 73.9767 15.694C74.225 15.3288 74.2506 14.9776 73.9126 14.6218C73.7262 14.425 73.5536 14.2156 73.3809 14.0061C73.196 13.7817 73.0109 13.5572 72.8088 13.3482C72.655 13.1896 72.5014 13.0307 72.3478 12.8719L72.3461 12.8701C71.4074 11.8995 70.4683 10.9285 69.4831 10.0035C68.9142 9.47074 68.2958 8.98774 67.6777 8.50495C67.4412 8.32021 67.2048 8.1355 66.9711 7.94803C66.5994 7.64837 66.4232 7.67647 66.1701 8.0526C66.1394 8.09942 66.1138 8.14961 66.0882 8.19979C66.0712 8.23326 66.0541 8.26673 66.0355 8.2992C65.9132 8.5115 65.7932 8.72515 65.6732 8.93875C65.405 9.41598 65.1369 9.89331 64.8436 10.3547C63.248 12.8611 61.2388 15.0938 58.897 16.9629C57.2779 18.2643 55.5059 19.374 53.6184 20.2685C50.3637 21.8146 46.8347 22.7381 43.2229 22.9889C39.8254 23.2151 36.4149 22.8034 33.1767 21.7762C31.1376 21.1409 29.1808 20.2778 27.3454 19.2041C24.0376 17.2967 21.1912 14.7163 19.0005 11.6392C18.3538 10.7394 17.7921 9.78005 17.2316 8.82276C17.1437 8.67257 17.0558 8.52242 16.9676 8.37255L16.9439 8.33196C16.5124 7.59122 16.4998 7.56968 15.7885 8.14157C14.8721 8.87823 13.9761 9.6378 13.1003 10.4202C12.3842 11.0633 11.705 11.7438 11.0337 12.4305C10.4442 13.0345 9.86906 13.6541 9.32277 14.294C8.60507 15.1368 8.61308 15.1602 9.22665 16.0967C10.7355 18.4072 12.4956 20.5526 14.4764 22.4957C15.4473 23.4446 16.5014 24.3202 17.5651 25.1724C22.1303 28.7758 27.4903 31.3 33.2248 32.5469C34.4757 32.8241 35.7417 33.0326 37.0167 33.1712C38.0138 33.2679 39.0169 33.3074 40.0198 33.347C40.4897 33.3655 40.9595 33.384 41.4287 33.4084ZM4.39979 90.2412L4.46067 90.2568C4.45235 90.3715 4.46538 90.4868 4.49912 90.5971C4.57121 90.7297 4.67854 90.9092 4.8019 90.931C4.89475 90.9475 5.00666 90.8808 5.11508 90.8162C5.15071 90.795 5.18596 90.774 5.22003 90.7562C5.24978 90.7411 5.26909 90.7036 5.28724 90.6684C5.28967 90.6636 5.29209 90.6589 5.2945 90.6543C5.29637 90.6508 5.29824 90.6473 5.30013 90.6439C5.41221 90.443 5.52452 90.2421 5.63686 90.0412C6.03514 89.3289 6.43377 88.6159 6.82364 87.9001C6.90694 87.7323 6.95339 87.5495 6.96001 87.3632C6.96663 87.177 6.93328 86.9915 6.86209 86.8185C6.6362 86.1583 5.92811 86.0085 5.47955 86.5516C5.25842 86.823 5.09847 87.1368 5.01016 87.4724C4.83376 88.1634 4.68834 88.8615 4.54297 89.5593C4.49561 89.7866 4.44821 90.0142 4.39979 90.2412ZM62.8732 7.84971C62.8459 7.53756 62.7594 7.2972 62.4999 7.1661C62.3758 7.0937 62.2302 7.06431 62.0869 7.08273C61.9435 7.10115 61.8107 7.16629 61.7101 7.26755C61.5346 7.45231 61.3902 7.66303 61.2824 7.89185C61.0005 8.44705 60.73 9.00779 60.4592 9.5691C60.3775 9.73835 60.2959 9.90766 60.2138 10.0769C60.2028 10.0993 60.1916 10.1215 60.1804 10.1436C60.1497 10.2046 60.1191 10.2652 60.0921 10.3282C60.0333 10.4299 60.0157 10.5494 60.0426 10.6632C60.0696 10.7769 60.1392 10.8768 60.2379 10.9431C60.4734 11.107 60.6896 11.0196 60.8787 10.8651C60.9916 10.7808 61.0919 10.6815 61.1766 10.5701L61.2438 10.4748C61.7164 9.80435 62.1897 9.13291 62.6409 8.44903C62.7443 8.25925 62.8239 8.05803 62.878 7.84971H62.8732ZM77.8087 98.7972C77.8087 98.0667 77.5155 97.8498 76.9981 98.0917C76.6873 98.2384 76.3204 98.421 76.157 98.6895C75.6689 99.4935 75.2517 100.342 74.8367 101.186L74.8274 101.205C74.7024 101.461 74.9059 101.674 75.191 101.597C75.4629 101.521 75.7185 101.398 75.9456 101.233C76.5836 100.751 77.1213 100.155 77.53 99.4761C77.6457 99.2593 77.7391 99.0319 77.8087 98.7972ZM76.0833 91.5585H76.1218C76.1046 91.6492 76.0945 91.741 76.0914 91.8332C76.0994 92.1562 76.3044 92.3014 76.604 92.1812C76.7381 92.1352 76.8567 92.0542 76.9468 91.9471L77.0384 91.8193C77.3593 91.3719 77.681 90.9234 77.9545 90.4503C78.0395 90.3216 78.0703 90.1659 78.0405 90.0156C78.0107 89.8653 77.9225 89.732 77.7943 89.6434C77.6724 89.5504 77.5246 89.4952 77.3701 89.4849C77.2155 89.4746 77.0614 89.5097 76.9276 89.5857C76.7738 89.674 76.6404 89.7923 76.5359 89.9334C76.4314 90.0744 76.358 90.235 76.3204 90.4051C76.2487 90.6744 76.1971 90.9526 76.145 91.2333C76.1249 91.3414 76.1047 91.45 76.0833 91.5585ZM4.84836 9.87867C4.80267 9.89862 4.75767 9.91405 4.71562 9.92846C4.62939 9.95802 4.55554 9.98334 4.51354 10.0347C4.41473 10.1527 4.31393 10.2696 4.21308 10.3865C3.87085 10.7833 3.52803 11.1808 3.26077 11.622C3.07173 11.9342 3.06212 12.3759 3.05411 12.7614C3.0461 13.1469 3.35849 13.267 3.62442 13.0095C3.93681 12.7067 4.26522 12.3649 4.42543 11.9779C4.60314 11.5566 4.7055 11.1046 4.80767 10.6534C4.84366 10.4945 4.87963 10.3356 4.91885 10.1783C4.9304 10.1292 4.91097 10.0727 4.88674 10.0023C4.87401 9.96526 4.85995 9.92437 4.84836 9.87867ZM75.7987 102.441C75.8421 102.548 75.8846 102.652 75.96 102.688C76.0329 102.71 76.1105 102.715 76.1855 102.7C76.2605 102.686 76.3306 102.653 76.3893 102.605C76.5554 102.416 76.6773 102.194 76.7466 101.955C76.7566 101.877 76.7408 101.799 76.7015 101.731C76.6623 101.663 76.6017 101.609 76.5286 101.577C76.4555 101.545 76.3739 101.537 76.2958 101.554C76.2176 101.571 76.1471 101.612 76.0946 101.67C75.9505 101.867 75.8306 102.079 75.7373 102.303C75.7599 102.345 75.7795 102.393 75.7987 102.441Z" fill="#E7881A"/>
<path d="M47.9312 0.328488C48.1218 0.328488 48.3125 0.328489 48.5015 0.336293C48.5617 0.333142 48.622 0.34165 48.6788 0.361327C48.7357 0.381004 48.788 0.41146 48.8326 0.450933C48.8773 0.490406 48.9136 0.538116 48.9392 0.591304C48.9649 0.644492 48.9794 0.702105 48.9821 0.760814C49.2689 2.62122 49.099 4.40358 48.0209 6.02987C46.7088 8.01514 44.8778 9.24344 42.4635 9.52125C39.7802 9.8334 37.4973 8.98748 35.687 7.02406C34.8175 6.12122 34.2431 4.98688 34.0369 3.76524C33.9251 3.04423 33.9378 2.30346 33.9504 1.56405C33.9544 1.32873 33.9584 1.09351 33.9584 0.859139C33.9584 0.536066 34.1891 0.362826 34.5191 0.344097C34.7109 0.332858 34.904 0.332999 35.0961 0.333139L35.16 0.33317L47.9312 0.328488Z" fill="#E7881A"/>
</svg>
