<svg width="56" height="57" viewBox="0 0 56 57" fill="none" xmlns="http://www.w3.org/2000/svg">
<path fill-rule="evenodd" clip-rule="evenodd" d="M28 0.587158C12.536 0.587158 0 13.1232 0 28.5872C0 44.0511 12.536 56.5872 28 56.5872C43.464 56.5872 56 44.0511 56 28.5872C56 13.1232 43.464 0.587158 28 0.587158ZM33.914 19.3445C33.9972 19.3287 34.0818 19.3207 34.1665 19.3206H42.2023C42.6903 19.3206 43.0725 19.5769 43.2177 19.9912C43.2708 20.1376 43.2894 20.2943 43.2722 20.4491C43.255 20.6039 43.2024 20.7526 43.1185 20.8839C43.0345 21.0151 42.9216 21.1253 42.7883 21.2058C42.655 21.2864 42.505 21.3353 42.3498 21.3486C42.2902 21.3545 42.2306 21.3548 42.171 21.355L42.1263 21.3553H34.174C33.6525 21.3553 33.2509 21.0573 33.1309 20.5916C33.0961 20.4582 33.089 20.319 33.11 20.1826C33.131 20.0463 33.1796 19.9157 33.253 19.7989C33.3263 19.682 33.4228 19.5815 33.5365 19.5033C33.6501 19.4252 33.7786 19.3711 33.914 19.3445ZM27.5001 34.8774C27.065 36.0694 26.3081 37.0096 25.198 37.6585C24.0454 38.329 22.7938 38.6427 21.4729 38.7418C21.049 38.7738 20.6251 38.776 20.2004 38.7768H10.6813V18.4244C10.6971 18.4122 10.7153 18.4035 10.7347 18.3989C10.7541 18.3943 10.7742 18.3938 10.7938 18.3976C13.9884 18.3976 17.1831 18.3991 20.3777 18.402C21.2941 18.402 22.1941 18.5436 23.0881 18.7351C24.2734 18.9884 25.271 19.5449 25.9721 20.5551C26.4526 21.2458 26.6828 22.0325 26.7484 22.8647C26.8042 23.5672 26.7759 24.2653 26.5562 24.9425C26.2582 25.8574 25.6674 26.5458 24.8858 27.0852C24.6118 27.2728 24.321 27.4347 24.0171 27.5687L24.3524 27.6887C25.7553 28.2057 26.764 29.1415 27.3466 30.5198C27.5776 31.0666 27.6588 31.6514 27.731 32.237C27.8413 33.1363 27.81 34.0213 27.5001 34.8774ZM35.2058 33.8813C35.7683 35.0249 36.7175 35.5896 37.9624 35.6984C38.6143 35.7565 39.255 35.6984 39.8681 35.4481C40.2608 35.291 40.6174 35.0556 40.916 34.7561C41.2145 34.4566 41.4489 34.0993 41.6048 33.7062C41.6383 33.6272 41.6666 33.5788 41.7709 33.5788C42.6852 33.5831 43.6019 33.5828 44.5183 33.5826L45.1295 33.5825C45.1503 33.5825 45.1712 33.5825 45.2144 33.5892C45.0673 34.0827 44.864 34.5576 44.6087 35.0048C43.8592 36.3339 42.84 37.3829 41.4379 38.0236C40.1818 38.5987 38.8586 38.7686 37.4893 38.6293C36.3677 38.5243 35.2806 38.1849 34.2984 37.6332C32.4694 36.5902 31.4241 34.9995 31.0292 32.9567C30.7987 31.7395 30.7868 30.491 30.9942 29.2696C31.1894 28.0776 31.6126 26.9809 32.3703 26.0265C33.128 25.0722 34.1062 24.4024 35.2446 23.9696C36.5832 23.4573 38.0271 23.2816 39.4494 23.4577C40.7681 23.6164 41.9765 24.0433 42.9771 24.9537C43.8823 25.7785 44.4321 26.8163 44.7793 27.9748C45.0447 28.8925 45.2062 29.8372 45.2606 30.7909C45.3001 31.3728 45.3224 31.9554 45.3202 32.5581H34.8333C34.8751 33.0183 35.0014 33.4669 35.2058 33.8813ZM18.9845 26.4482C19.3509 26.4496 19.7163 26.4081 20.073 26.3246C20.6303 26.1905 21.116 25.9424 21.4595 25.4626C21.7888 25.0014 21.8737 24.4717 21.8812 23.9234C21.8961 22.7753 21.3001 21.9424 20.2123 21.5825C19.6774 21.4045 19.1246 21.359 18.5658 21.3553H15.7772V26.4445L15.7935 26.4447L15.81 26.4453C15.8199 26.4458 15.8293 26.4464 15.8383 26.447C15.8536 26.448 15.8676 26.449 15.8808 26.449C16.9159 26.449 17.9505 26.4487 18.9845 26.4482ZM19.2714 29.5073C19.9113 29.508 20.5446 29.5721 21.1406 29.8232C22.0279 30.1964 22.5472 30.8736 22.7283 31.8079C22.922 32.8055 22.7305 33.7174 22.0518 34.4974C21.5139 35.1135 20.8173 35.4279 20.0238 35.5561C19.6401 35.6094 19.2526 35.6309 18.8653 35.6201H15.7765V29.5274C15.8165 29.498 15.8609 29.5016 15.904 29.5051C15.9178 29.5062 15.9315 29.5073 15.9449 29.5073H19.2714ZM39.0315 26.5369C39.639 26.6425 40.1885 26.9623 40.5804 27.4384C40.9037 27.8317 41.0833 28.2944 41.2054 28.7831C41.2707 29.0497 41.3153 29.321 41.3388 29.5944H34.8333C34.9182 28.2676 35.5463 27.1471 36.8039 26.6621C37.5213 26.3842 38.2798 26.3879 39.0315 26.5369Z" fill="#7A7A78"/>
</svg>
