<svg width="46" height="45" viewBox="0 0 46 45" fill="none" xmlns="http://www.w3.org/2000/svg">
<circle cx="22.9999" cy="22.1905" r="22.1029" fill="#E7881A"/>
<path fill-rule="evenodd" clip-rule="evenodd" d="M28.7053 23.6979C31.6175 25.1618 32.9885 26.4963 33.4387 27.6583C33.7298 28.4094 33.6584 29.0885 33.3657 29.6887C33.0908 30.2529 32.6222 30.7319 32.0855 31.1268C30.772 32.0936 28.9097 32.5689 28.6831 32.522L28.6678 32.5183C26.404 31.9678 24.427 31.152 22.6197 30.0235C20.8148 28.8963 19.1874 27.4628 17.6207 25.6751C16.1621 24.0109 15.0076 22.2438 14.1394 20.3599C13.2703 18.4746 12.6893 16.477 12.3779 14.3532V14.3475C12.3284 13.9842 13.0502 11.9675 14.2102 10.6637C14.6576 10.1608 15.1731 9.74365 15.742 9.52731C16.357 9.29357 17.0188 9.28907 17.7054 9.64437C18.7998 10.2105 19.9469 11.7468 21.0214 14.8833C21.4669 15.8837 20.8155 16.5773 20.1243 17.3125C19.4759 18.0024 18.7761 18.7473 19.7228 19.8275L23.627 24.2822C24.5699 25.3581 25.3989 24.7742 26.1671 24.2333C26.991 23.6535 27.7678 23.1065 28.7051 23.6981L28.7053 23.6979Z" fill="black"/>
</svg>
