<svg width="22" height="22" viewBox="0 0 22 22" fill="none" xmlns="http://www.w3.org/2000/svg">
<path fill-rule="evenodd" clip-rule="evenodd" d="M1.40065 18.6224C1.01013 19.0129 1.01013 19.646 1.40065 20.0366C1.79118 20.4271 2.42434 20.4271 2.81487 20.0366L10.2595 12.5919L18.5243 20.8567C18.9148 21.2473 19.548 21.2473 19.9385 20.8567C20.329 20.4662 20.329 19.833 19.9385 19.4425L11.6737 11.1777L21.0114 1.84004C21.4019 1.44952 21.4019 0.816352 21.0114 0.425828C20.6209 0.0353033 19.9877 0.0353038 19.5972 0.425828L10.2595 9.76352L1.74197 1.24601C1.35145 0.855483 0.718284 0.855483 0.327759 1.24601C-0.0627647 1.63653 -0.0627647 2.2697 0.32776 2.66022L8.84527 11.1777L1.40065 18.6224Z" fill="#B5B5B5"/>
</svg>
